SplineFontDB: 3.2
FontName: FiraSans-Light
FullName: Fira Sans Light
FamilyName: Fira Sans Light
Weight: Light
Copyright: Digitized data copyright 2012-2016, The Mozilla Foundation and Telefonica S.A.
Version: 4.203
ItalicAngle: 0
UnderlinePosition: -100
UnderlineWidth: 50
Ascent: 800
Descent: 200
InvalidEm: 0
sfntRevision: 0x000433f7
LayerCount: 2
Layer: 0 1 "Back" 1
Layer: 1 1 "Fore" 0
XUID: [1021 214 -1571244977 10042]
StyleMap: 0x0040
FSType: 0
OS2Version: 4
OS2_WeightWidthSlopeOnly: 0
OS2_UseTypoMetrics: 1
CreationTime: 1476947922
ModificationTime: 1592164422
PfmFamily: 17
TTFWeight: 300
TTFWidth: 5
LineGap: 0
VLineGap: 0
Panose: 2 11 4 3 5 0 0 2 0 4
OS2TypoAscent: 935
OS2TypoAOffset: 0
OS2TypoDescent: -265
OS2TypoDOffset: 0
OS2TypoLinegap: 0
OS2WinAscent: 935
OS2WinAOffset: 0
OS2WinDescent: 265
OS2WinDOffset: 0
HheadAscent: 935
HheadAOffset: 0
HheadDescent: -265
HheadDOffset: 0
OS2SubXSize: 650
OS2SubYSize: 600
OS2SubXOff: 0
OS2SubYOff: 75
OS2SupXSize: 650
OS2SupYSize: 600
OS2SupXOff: 0
OS2SupYOff: 350
OS2StrikeYSize: 50
OS2StrikeYPos: 313
OS2CapHeight: 685
OS2XHeight: 523
OS2Vendor: 'CTDB'
OS2CodePages: 2000019f.00000000
OS2UnicodeRanges: 00000027.00000001.00000000.00000000
Lookup: 1 0 0 "'locl' Localized Forms in Latin lookup 0" { "'locl' Localized Forms in Latin lookup 0 subtable"  } ['locl' ('latn' <'TAT ' > ) ]
Lookup: 1 0 0 "'locl' Localized Forms in Latin lookup 1" { "'locl' Localized Forms in Latin lookup 1 subtable"  } ['locl' ('latn' <'TRK ' > ) ]
Lookup: 1 0 0 "'locl' Localized Forms in Latin lookup 2" { "'locl' Localized Forms in Latin lookup 2 subtable"  } ['locl' ('latn' <'KAZ ' > ) ]
Lookup: 1 0 0 "'locl' Localized Forms in Latin lookup 3" { "'locl' Localized Forms in Latin lookup 3 subtable"  } ['locl' ('latn' <'PLK ' > ) ]
Lookup: 1 0 0 "'locl' Localized Forms in Latin lookup 4" { "'locl' Localized Forms in Latin lookup 4 subtable"  } ['locl' ('latn' <'AZE ' > ) ]

StartChar: A
Encoding: 65 65 1
Width: 565
GlyphClass: 2
Flags: W
LayerCount: 2
Fore
SplineSet
485 0 m 1,0,-1
 425 187 l 1,1,-1
 137 187 l 1,2,-1
 77 0 l 1,3,-1
 16 0 l 1,4,-1
 245 685 l 1,5,-1
 320 685 l 1,6,-1
 548 0 l 1,7,-1
 485 0 l 1,0,-1
154 238 m 1,8,-1
 409 238 l 1,9,-1
 282 636 l 1,10,-1
 154 238 l 1,8,-1
EndSplineSet
Substitution2: "Single Substitution lookup 19 subtable" ordfeminine
EndChar

StartChar: Aacute
Encoding: 193 193 2
Width: 565
GlyphClass: 2
Flags: W
LayerCount: 2
Fore
SplineSet
364 888 m 1
 390 836 l 1
 192 758 l 1
 176 792 l 1
 364 888 l 1
EndSplineSet
Refer: 1 65 N 1 0 0 1 0 0 0
EndChar

StartChar: Acircumflex
Encoding: 194 194 3
Width: 565
GlyphClass: 2
Flags: W
LayerCount: 2
Fore
SplineSet
161 762 m 1
 135 792 l 1
 265 894 l 1
 301 894 l 1
 430 792 l 1
 404 762 l 1
 283 842 l 1
 161 762 l 1
EndSplineSet
Refer: 1 65 N 1 0 0 1 0 0 0
EndChar

StartChar: Adieresis
Encoding: 196 196 4
Width: 565
GlyphClass: 2
Flags: W
LayerCount: 2
Fore
SplineSet
216.5 856.5 m 0
 228 845 228 845 228 828 c 256
 228 811 228 811 216.5 800 c 0
 205 789 205 789 188 789 c 256
 171 789 171 789 159.5 800 c 0
 148 811 148 811 148 828 c 256
 148 845 148 845 159.5 856.5 c 0
 171 868 171 868 188 868 c 256
 205 868 205 868 216.5 856.5 c 0
405.5 856.5 m 0
 417 845 417 845 417 828 c 256
 417 811 417 811 405.5 800 c 0
 394 789 394 789 377 789 c 256
 360 789 360 789 348.5 800 c 0
 337 811 337 811 337 828 c 256
 337 845 337 845 348.5 856.5 c 0
 360 868 360 868 377 868 c 256
 394 868 394 868 405.5 856.5 c 0
EndSplineSet
Refer: 1 65 N 1 0 0 1 0 0 0
EndChar

StartChar: Agrave
Encoding: 192 192 5
Width: 565
GlyphClass: 2
Flags: W
LayerCount: 2
Fore
SplineSet
197 888 m 1
 385 792 l 1
 369 758 l 1
 171 836 l 1
 197 888 l 1
EndSplineSet
Refer: 1 65 N 1 0 0 1 0 0 0
EndChar

StartChar: Aring
Encoding: 197 197 6
Width: 565
GlyphClass: 2
Flags: W
LayerCount: 2
Fore
SplineSet
353.5 920.5 m 0
 381 894 381 894 381 853 c 256
 381 812 381 812 353.5 785.5 c 0
 326 759 326 759 283 759 c 0
 239 759 239 759 211.5 785.5 c 0
 184 812 184 812 184 853 c 256
 184 894 184 894 211.5 920.5 c 0
 239 947 239 947 283 947 c 0
 326 947 326 947 353.5 920.5 c 0
241.5 895.5 m 0
 227 880 227 880 227 853 c 0
 227 825 227 825 241.5 810 c 0
 256 795 256 795 283 795 c 0
 309 795 309 795 323.5 810 c 0
 338 825 338 825 338 853 c 0
 338 880 338 880 323.5 895.5 c 0
 309 911 309 911 283 911 c 0
 256 911 256 911 241.5 895.5 c 0
EndSplineSet
Refer: 1 65 N 1 0 0 1 0 0 0
EndChar

StartChar: Atilde
Encoding: 195 195 7
Width: 565
GlyphClass: 2
Flags: W
LayerCount: 2
Fore
SplineSet
308 798.5 m 0
 293 805 293 805 271 818 c 0
 255 828 255 828 244.5 833 c 0
 234 838 234 838 224 838 c 0
 207 838 207 838 194.5 828.5 c 0
 182 819 182 819 168 798 c 1
 132 816 l 1
 169 884 169 884 224 884 c 0
 241 884 241 884 255.5 878 c 0
 270 872 270 872 288 860 c 0
 306 849 306 849 317 844 c 0
 328 839 328 839 341 839 c 0
 357 839 357 839 369.5 849 c 0
 382 859 382 859 397 882 c 1
 433 864 l 1
 398 792 398 792 341 792 c 0
 323 792 323 792 308 798.5 c 0
EndSplineSet
Refer: 1 65 N 1 0 0 1 0 0 0
EndChar

StartChar: AE
Encoding: 198 198 8
Width: 784
GlyphClass: 2
Flags: W
LayerCount: 2
Fore
SplineSet
509 50 m 1,0,-1
 737 50 l 1,1,-1
 737 0 l 1,2,-1
 461 0 l 1,3,-1
 415 184 l 1,4,-1
 130 184 l 1,5,-1
 60 0 l 1,6,-1
 0 0 l 1,7,-1
 267 685 l 1,8,-1
 690 685 l 1,9,-1
 683 635 l 1,10,-1
 358 635 l 1,11,-1
 424 379 l 1,12,-1
 682 379 l 1,13,-1
 682 330 l 1,14,-1
 437 330 l 1,15,-1
 509 50 l 1,0,-1
149 235 m 1,16,-1
 402 235 l 1,17,-1
 302 637 l 1,18,-1
 149 235 l 1,16,-1
EndSplineSet
EndChar

StartChar: B
Encoding: 66 66 9
Width: 598
GlyphClass: 2
Flags: W
LayerCount: 2
Fore
SplineSet
500 313.5 m 128,-1,1
 544 272 544 272 544 190 c 0,2,3
 544 94 544 94 479 47 c 128,-1,4
 414 0 414 0 298 0 c 2,5,-1
 111 0 l 1,6,-1
 111 685 l 1,7,-1
 264 685 l 2,8,9
 383 685 383 685 447.5 642 c 128,-1,10
 512 599 512 599 512 514 c 0,11,12
 512 451 512 451 477.5 412 c 128,-1,13
 443 373 443 373 386 363 c 1,14,0
 456 355 456 355 500 313.5 c 128,-1,1
171 635 m 1,15,-1
 171 384 l 1,16,-1
 309 384 l 2,17,18
 373 384 373 384 412 417.5 c 128,-1,19
 451 451 451 451 451 510 c 0,20,21
 451 577 451 577 405.5 606 c 128,-1,22
 360 635 360 635 270 635 c 2,23,-1
 171 635 l 1,15,-1
482 190 m 0,25,26
 482 264 482 264 436.5 300 c 128,-1,27
 391 336 391 336 316 336 c 2,28,-1
 171 336 l 1,29,-1
 171 50 l 1,30,-1
 298 50 l 2,31,24
 482 50 482 50 482 190 c 0,25,26
EndSplineSet
EndChar

StartChar: C
Encoding: 67 67 10
Width: 550
GlyphClass: 2
Flags: W
LayerCount: 2
Fore
SplineSet
439.5 680.5 m 128,-1,1
 479 665 479 665 519 633 c 1,2,-1
 487 593 l 1,3,4
 452 621 452 621 420 633 c 128,-1,5
 388 645 388 645 347 645 c 0,6,7
 250 645 250 645 189.5 571 c 128,-1,8
 129 497 129 497 129 343 c 0,9,10
 129 243 129 243 157 175 c 128,-1,11
 185 107 185 107 233.5 74.5 c 128,-1,12
 282 42 282 42 344 42 c 0,13,14
 393 42 393 42 427 56.5 c 128,-1,15
 461 71 461 71 496 99 c 1,16,-1
 527 60 l 1,17,18
 452 -11 452 -11 342 -11 c 0,19,20
 262 -11 262 -11 199.5 30 c 128,-1,21
 137 71 137 71 101.5 150.5 c 128,-1,22
 66 230 66 230 66 343 c 256,23,24
 66 456 66 456 103 535.5 c 128,-1,25
 140 615 140 615 202.5 655.5 c 128,-1,26
 265 696 265 696 343 696 c 0,27,0
 400 696 400 696 439.5 680.5 c 128,-1,1
EndSplineSet
EndChar

StartChar: Ccedilla
Encoding: 199 199 11
Width: 550
GlyphClass: 2
Flags: W
LayerCount: 2
Fore
SplineSet
427.5 -88 m 128,-1,1
 450 -108 450 -108 450 -140 c 0,2,3
 450 -181 450 -181 420 -204 c 128,-1,4
 390 -227 390 -227 345 -227 c 0,5,6
 297 -227 297 -227 265 -206 c 1,7,-1
 283 -170 l 1,8,9
 310 -185 310 -185 344 -185 c 0,10,11
 368 -185 368 -185 383.5 -174 c 128,-1,12
 399 -163 399 -163 399 -140 c 0,13,14
 399 -118 399 -118 377.5 -107 c 128,-1,15
 356 -96 356 -96 310 -96 c 1,16,-1
 318 -10 l 1,17,18
 244 -4 244 -4 187 38.5 c 128,-1,19
 130 81 130 81 98 158.5 c 128,-1,20
 66 236 66 236 66 343 c 0,21,22
 66 456 66 456 103 535.5 c 128,-1,23
 140 615 140 615 202.5 655.5 c 128,-1,24
 265 696 265 696 343 696 c 0,25,26
 400 696 400 696 439.5 680.5 c 128,-1,27
 479 665 479 665 519 633 c 1,28,-1
 487 593 l 1,29,30
 452 621 452 621 420 633 c 128,-1,31
 388 645 388 645 347 645 c 0,32,33
 250 645 250 645 189.5 571 c 128,-1,34
 129 497 129 497 129 343 c 0,35,36
 129 243 129 243 157 175 c 128,-1,37
 185 107 185 107 233.5 74.5 c 128,-1,38
 282 42 282 42 344 42 c 0,39,40
 393 42 393 42 427 56.5 c 128,-1,41
 461 71 461 71 496 99 c 1,42,-1
 527 60 l 1,43,44
 460 -6 460 -6 358 -11 c 1,45,-1
 358 -64 l 1,46,0
 405 -68 405 -68 427.5 -88 c 128,-1,1
EndSplineSet
EndChar

StartChar: D
Encoding: 68 68 12
Width: 632
GlyphClass: 2
Flags: W
LayerCount: 2
Fore
SplineSet
477.5 613 m 128,-1,1
 566 541 566 541 566 348 c 256,2,3
 566 155 566 155 476.5 77.5 c 128,-1,4
 387 0 387 0 258 0 c 2,5,-1
 111 0 l 1,6,-1
 111 685 l 1,7,-1
 247 685 l 2,8,0
 389 685 389 685 477.5 613 c 128,-1,1
171 635 m 1,9,-1
 171 50 l 1,10,-1
 262 50 l 2,11,12
 503 50 503 50 503 348 c 0,13,14
 503 466 503 466 468 529 c 128,-1,15
 433 592 433 592 379.5 613.5 c 128,-1,16
 326 635 326 635 255 635 c 2,17,-1
 171 635 l 1,9,-1
EndSplineSet
EndChar

StartChar: Eth
Encoding: 208 208 13
Width: 637
GlyphClass: 2
Flags: W
LayerCount: 2
Fore
SplineSet
482.5 613 m 128,-1,1
 571 541 571 541 571 348 c 256,2,3
 571 155 571 155 481.5 77.5 c 128,-1,4
 392 0 392 0 263 0 c 2,5,-1
 116 0 l 1,6,-1
 116 328 l 1,7,-1
 23 328 l 1,8,-1
 23 376 l 1,9,-1
 116 376 l 1,10,-1
 116 685 l 1,11,-1
 252 685 l 2,12,0
 394 685 394 685 482.5 613 c 128,-1,1
508 348 m 0,14,15
 508 466 508 466 473 529 c 128,-1,16
 438 592 438 592 384.5 613.5 c 128,-1,17
 331 635 331 635 260 635 c 2,18,-1
 176 635 l 1,19,-1
 176 376 l 1,20,-1
 351 376 l 1,21,-1
 351 328 l 1,22,-1
 176 328 l 1,23,-1
 176 50 l 1,24,-1
 267 50 l 2,25,13
 508 50 508 50 508 348 c 0,14,15
EndSplineSet
EndChar

StartChar: E
Encoding: 69 69 14
Width: 512
GlyphClass: 2
Flags: W
LayerCount: 2
Fore
SplineSet
459 685 m 1,0,-1
 452 635 l 1,1,-1
 171 635 l 1,2,-1
 171 380 l 1,3,-1
 414 380 l 1,4,-1
 414 330 l 1,5,-1
 171 330 l 1,6,-1
 171 50 l 1,7,-1
 466 50 l 1,8,-1
 466 0 l 1,9,-1
 111 0 l 1,10,-1
 111 685 l 1,11,-1
 459 685 l 1,0,-1
EndSplineSet
EndChar

StartChar: Eacute
Encoding: 201 201 15
Width: 512
GlyphClass: 2
Flags: W
LayerCount: 2
Fore
SplineSet
370 888 m 1
 396 836 l 1
 198 758 l 1
 182 792 l 1
 370 888 l 1
EndSplineSet
Refer: 14 69 N 1 0 0 1 0 0 0
EndChar

StartChar: Ecircumflex
Encoding: 202 202 16
Width: 512
GlyphClass: 2
Flags: W
LayerCount: 2
Fore
SplineSet
167 762 m 1
 141 792 l 1
 271 894 l 1
 307 894 l 1
 436 792 l 1
 410 762 l 1
 289 842 l 1
 167 762 l 1
EndSplineSet
Refer: 14 69 N 1 0 0 1 0 0 0
EndChar

StartChar: Edieresis
Encoding: 203 203 17
Width: 512
GlyphClass: 2
Flags: W
LayerCount: 2
Fore
SplineSet
222.5 856.5 m 0
 234 845 234 845 234 828 c 256
 234 811 234 811 222.5 800 c 0
 211 789 211 789 194 789 c 256
 177 789 177 789 165.5 800 c 0
 154 811 154 811 154 828 c 256
 154 845 154 845 165.5 856.5 c 0
 177 868 177 868 194 868 c 256
 211 868 211 868 222.5 856.5 c 0
411.5 856.5 m 0
 423 845 423 845 423 828 c 256
 423 811 423 811 411.5 800 c 0
 400 789 400 789 383 789 c 256
 366 789 366 789 354.5 800 c 0
 343 811 343 811 343 828 c 256
 343 845 343 845 354.5 856.5 c 0
 366 868 366 868 383 868 c 256
 400 868 400 868 411.5 856.5 c 0
EndSplineSet
Refer: 14 69 N 1 0 0 1 0 0 0
EndChar

StartChar: Egrave
Encoding: 200 200 18
Width: 512
GlyphClass: 2
Flags: W
LayerCount: 2
Fore
SplineSet
203 888 m 1
 391 792 l 1
 375 758 l 1
 177 836 l 1
 203 888 l 1
EndSplineSet
Refer: 14 69 N 1 0 0 1 0 0 0
EndChar

StartChar: F
Encoding: 70 70 19
Width: 481
GlyphClass: 2
Flags: W
LayerCount: 2
Fore
SplineSet
111 0 m 1,0,-1
 111 685 l 1,1,-1
 453 685 l 1,2,-1
 446 635 l 1,3,-1
 171 635 l 1,4,-1
 171 368 l 1,5,-1
 408 368 l 1,6,-1
 408 318 l 1,7,-1
 171 318 l 1,8,-1
 171 0 l 1,9,-1
 111 0 l 1,0,-1
EndSplineSet
EndChar

StartChar: G
Encoding: 71 71 20
Width: 618
GlyphClass: 2
Flags: W
LayerCount: 2
Fore
SplineSet
453 679.5 m 128,-1,1
 496 663 496 663 540 628 c 1,2,-1
 504 590 l 1,3,4
 467 619 467 619 432 632 c 128,-1,5
 397 645 397 645 352 645 c 0,6,7
 293 645 293 645 242.5 614 c 128,-1,8
 192 583 192 583 160.5 515.5 c 128,-1,9
 129 448 129 448 129 345 c 0,10,11
 129 192 129 192 187 116 c 128,-1,12
 245 40 245 40 349 40 c 0,13,14
 429 40 429 40 493 76 c 1,15,-1
 493 319 l 1,16,-1
 359 319 l 1,17,-1
 352 369 l 1,18,-1
 552 369 l 1,19,-1
 552 45 l 1,20,21
 454 -11 454 -11 349 -11 c 0,22,23
 218 -11 218 -11 142 80 c 128,-1,24
 66 171 66 171 66 345 c 0,25,26
 66 458 66 458 105.5 537.5 c 128,-1,27
 145 617 145 617 210.5 656.5 c 128,-1,28
 276 696 276 696 352 696 c 0,29,0
 410 696 410 696 453 679.5 c 128,-1,1
EndSplineSet
EndChar

StartChar: H
Encoding: 72 72 21
Width: 670
GlyphClass: 2
Flags: W
LayerCount: 2
Fore
SplineSet
499 0 m 1,0,-1
 499 335 l 1,1,-1
 171 335 l 1,2,-1
 171 0 l 1,3,-1
 111 0 l 1,4,-1
 111 685 l 1,5,-1
 171 685 l 1,6,-1
 171 386 l 1,7,-1
 499 386 l 1,8,-1
 499 685 l 1,9,-1
 559 685 l 1,10,-1
 559 0 l 1,11,-1
 499 0 l 1,0,-1
EndSplineSet
EndChar

StartChar: I
Encoding: 73 73 22
Width: 282
GlyphClass: 2
Flags: W
LayerCount: 2
Fore
SplineSet
171 685 m 1,0,-1
 171 0 l 1,1,-1
 111 0 l 1,2,-1
 111 685 l 1,3,-1
 171 685 l 1,0,-1
EndSplineSet
EndChar

StartChar: Iacute
Encoding: 205 205 23
Width: 282
GlyphClass: 2
Flags: W
LayerCount: 2
Fore
SplineSet
221 888 m 1
 247 836 l 1
 49 758 l 1
 33 792 l 1
 221 888 l 1
EndSplineSet
Refer: 22 73 N 1 0 0 1 0 0 0
EndChar

StartChar: Icircumflex
Encoding: 206 206 24
Width: 282
GlyphClass: 2
Flags: W
LayerCount: 2
Fore
SplineSet
18 762 m 1
 -8 792 l 1
 122 894 l 1
 158 894 l 1
 287 792 l 1
 261 762 l 1
 140 842 l 1
 18 762 l 1
EndSplineSet
Refer: 22 73 N 1 0 0 1 0 0 0
EndChar

StartChar: Idieresis
Encoding: 207 207 25
Width: 282
GlyphClass: 2
Flags: W
LayerCount: 2
Fore
SplineSet
73.5 856.5 m 0
 85 845 85 845 85 828 c 256
 85 811 85 811 73.5 800 c 0
 62 789 62 789 45 789 c 256
 28 789 28 789 16.5 800 c 0
 5 811 5 811 5 828 c 256
 5 845 5 845 16.5 856.5 c 0
 28 868 28 868 45 868 c 256
 62 868 62 868 73.5 856.5 c 0
262.5 856.5 m 0
 274 845 274 845 274 828 c 256
 274 811 274 811 262.5 800 c 0
 251 789 251 789 234 789 c 256
 217 789 217 789 205.5 800 c 0
 194 811 194 811 194 828 c 256
 194 845 194 845 205.5 856.5 c 0
 217 868 217 868 234 868 c 256
 251 868 251 868 262.5 856.5 c 0
EndSplineSet
Refer: 22 73 N 1 0 0 1 0 0 0
EndChar

StartChar: Igrave
Encoding: 204 204 26
Width: 282
GlyphClass: 2
Flags: W
LayerCount: 2
Fore
SplineSet
54 888 m 1
 242 792 l 1
 226 758 l 1
 28 836 l 1
 54 888 l 1
EndSplineSet
Refer: 22 73 N 1 0 0 1 0 0 0
EndChar

StartChar: J
Encoding: 74 74 27
Width: 291
GlyphClass: 2
Flags: W
LayerCount: 2
Fore
SplineSet
185 92 m 2,0,1
 185 31 185 31 169.5 -7.5 c 128,-1,2
 154 -46 154 -46 121 -71 c 128,-1,3
 88 -96 88 -96 29 -119 c 1,4,-1
 13 -75 l 1,5,6
 59 -55 59 -55 83 -33.5 c 128,-1,7
 107 -12 107 -12 116 17.5 c 128,-1,8
 125 47 125 47 125 95 c 2,9,-1
 125 685 l 1,10,-1
 185 685 l 1,11,-1
 185 92 l 2,0,1
EndSplineSet
EndChar

StartChar: K
Encoding: 75 75 28
Width: 547
GlyphClass: 2
Flags: W
LayerCount: 2
Fore
SplineSet
171 685 m 1,0,-1
 171 0 l 1,1,-1
 111 0 l 1,2,-1
 111 685 l 1,3,-1
 171 685 l 1,0,-1
530 685 m 1,4,-1
 246 370 l 1,5,-1
 547 0 l 1,6,-1
 474 0 l 1,7,-1
 175 367 l 1,8,-1
 461 685 l 1,9,-1
 530 685 l 1,4,-1
EndSplineSet
EndChar

StartChar: L
Encoding: 76 76 29
Width: 477
GlyphClass: 2
Flags: W
LayerCount: 2
Fore
SplineSet
171 685 m 1,0,-1
 171 54 l 1,1,-1
 457 54 l 1,2,-1
 449 0 l 1,3,-1
 111 0 l 1,4,-1
 111 685 l 1,5,-1
 171 685 l 1,0,-1
EndSplineSet
EndChar

StartChar: M
Encoding: 77 77 30
Width: 770
GlyphClass: 2
Flags: W
LayerCount: 2
Fore
SplineSet
701 0 m 1,0,-1
 643 0 l 1,1,-1
 612 328 l 2,2,3
 593 519 593 519 586 626 c 1,4,-1
 414 81 l 1,5,-1
 357 81 l 1,6,-1
 179 626 l 1,7,8
 174 529 174 529 159 369 c 2,9,-1
 156 330 l 1,10,-1
 126 0 l 1,11,-1
 69 0 l 1,12,-1
 134 685 l 1,13,-1
 217 685 l 1,14,-1
 387 152 l 1,15,-1
 551 685 l 1,16,-1
 635 685 l 1,17,-1
 701 0 l 1,0,-1
EndSplineSet
EndChar

StartChar: N
Encoding: 78 78 31
Width: 673
GlyphClass: 2
Flags: W
LayerCount: 2
Fore
SplineSet
562 0 m 1,0,-1
 483 0 l 1,1,-1
 160 619 l 1,2,3
 168 494 168 494 168 383 c 2,4,-1
 168 0 l 1,5,-1
 111 0 l 1,6,-1
 111 685 l 1,7,-1
 188 685 l 1,8,-1
 513 66 l 1,9,10
 505 182 505 182 505 269 c 2,11,-1
 505 685 l 1,12,-1
 562 685 l 1,13,-1
 562 0 l 1,0,-1
EndSplineSet
EndChar

StartChar: Ntilde
Encoding: 209 209 32
Width: 673
GlyphClass: 2
Flags: W
LayerCount: 2
Fore
SplineSet
370 798.5 m 0
 355 805 355 805 333 818 c 0
 317 828 317 828 306.5 833 c 0
 296 838 296 838 286 838 c 0
 269 838 269 838 256.5 828.5 c 0
 244 819 244 819 230 798 c 1
 194 816 l 1
 231 884 231 884 286 884 c 0
 303 884 303 884 317.5 878 c 0
 332 872 332 872 350 860 c 0
 368 849 368 849 379 844 c 0
 390 839 390 839 403 839 c 0
 419 839 419 839 431.5 849 c 0
 444 859 444 859 459 882 c 1
 495 864 l 1
 460 792 460 792 403 792 c 0
 385 792 385 792 370 798.5 c 0
EndSplineSet
Refer: 31 78 N 1 0 0 1 0 0 0
EndChar

StartChar: O
Encoding: 79 79 33
Width: 691
GlyphClass: 2
Flags: W
LayerCount: 2
Fore
SplineSet
492 655.5 m 128,-1,1
 555 615 555 615 590 535 c 128,-1,2
 625 455 625 455 625 342 c 0,3,4
 625 231 625 231 590.5 151.5 c 128,-1,5
 556 72 556 72 493 30.5 c 128,-1,6
 430 -11 430 -11 345 -11 c 0,7,8
 262 -11 262 -11 199 30 c 128,-1,9
 136 71 136 71 101 150 c 128,-1,10
 66 229 66 229 66 341 c 0,11,12
 66 452 66 452 101 532 c 128,-1,13
 136 612 136 612 199.5 654 c 128,-1,14
 263 696 263 696 345 696 c 0,15,0
 429 696 429 696 492 655.5 c 128,-1,1
187 568.5 m 128,-1,17
 129 492 129 492 129 341 c 0,18,19
 129 192 129 192 187.5 116 c 128,-1,20
 246 40 246 40 345 40 c 0,21,22
 448 40 448 40 505 115.5 c 128,-1,23
 562 191 562 191 562 342 c 0,24,25
 562 494 562 494 504.5 569.5 c 128,-1,26
 447 645 447 645 345 645 c 0,27,16
 245 645 245 645 187 568.5 c 128,-1,17
EndSplineSet
Substitution2: "Single Substitution lookup 19 subtable" ordmasculine
EndChar

StartChar: Oacute
Encoding: 211 211 34
Width: 691
GlyphClass: 2
Flags: W
LayerCount: 2
Fore
SplineSet
426 888 m 1
 452 836 l 1
 254 758 l 1
 238 792 l 1
 426 888 l 1
EndSplineSet
Refer: 33 79 N 1 0 0 1 0 0 0
Substitution2: "'locl' Localized Forms in Latin lookup 3 subtable" Oacute.loclPLK
EndChar

StartChar: Ocircumflex
Encoding: 212 212 35
Width: 691
GlyphClass: 2
Flags: W
LayerCount: 2
Fore
SplineSet
223 762 m 1
 197 792 l 1
 327 894 l 1
 363 894 l 1
 492 792 l 1
 466 762 l 1
 345 842 l 1
 223 762 l 1
EndSplineSet
Refer: 33 79 N 1 0 0 1 0 0 0
EndChar

StartChar: Odieresis
Encoding: 214 214 36
Width: 691
GlyphClass: 2
Flags: W
LayerCount: 2
Fore
SplineSet
278.5 856.5 m 0
 290 845 290 845 290 828 c 256
 290 811 290 811 278.5 800 c 0
 267 789 267 789 250 789 c 256
 233 789 233 789 221.5 800 c 0
 210 811 210 811 210 828 c 256
 210 845 210 845 221.5 856.5 c 0
 233 868 233 868 250 868 c 256
 267 868 267 868 278.5 856.5 c 0
467.5 856.5 m 0
 479 845 479 845 479 828 c 256
 479 811 479 811 467.5 800 c 0
 456 789 456 789 439 789 c 256
 422 789 422 789 410.5 800 c 0
 399 811 399 811 399 828 c 256
 399 845 399 845 410.5 856.5 c 0
 422 868 422 868 439 868 c 256
 456 868 456 868 467.5 856.5 c 0
EndSplineSet
Refer: 33 79 N 1 0 0 1 0 0 0
EndChar

StartChar: Ograve
Encoding: 210 210 37
Width: 691
GlyphClass: 2
Flags: W
LayerCount: 2
Fore
SplineSet
259 888 m 1
 447 792 l 1
 431 758 l 1
 233 836 l 1
 259 888 l 1
EndSplineSet
Refer: 33 79 N 1 0 0 1 0 0 0
EndChar

StartChar: Oslash
Encoding: 216 216 38
Width: 691
GlyphClass: 2
Flags: W
LayerCount: 2
Fore
SplineSet
584 548.5 m 128,-1,1
 625 465 625 465 625 342 c 0,2,3
 625 231 625 231 590.5 151.5 c 128,-1,4
 556 72 556 72 493 30.5 c 128,-1,5
 430 -11 430 -11 345 -11 c 0,6,7
 303 -11 303 -11 267 -1 c 1,8,-1
 235 -120 l 1,9,-1
 182 -105 l 1,10,-1
 221 17 l 1,11,12
 147 55 147 55 106.5 137.5 c 128,-1,13
 66 220 66 220 66 341 c 0,14,15
 66 452 66 452 101 532 c 128,-1,16
 136 612 136 612 199.5 654 c 128,-1,17
 263 696 263 696 345 696 c 0,18,19
 385 696 385 696 421 687 c 1,20,-1
 456 810 l 1,21,-1
 509 796 l 1,22,-1
 469 669 l 1,23,0
 543 632 543 632 584 548.5 c 128,-1,1
158 166.5 m 128,-1,25
 187 98 187 98 241 66 c 1,26,-1
 410 636 l 1,27,28
 380 645 380 645 345 645 c 0,29,30
 245 645 245 645 187 568.5 c 128,-1,31
 129 492 129 492 129 341 c 0,32,24
 129 235 129 235 158 166.5 c 128,-1,25
505 115.5 m 128,-1,34
 562 191 562 191 562 342 c 0,35,36
 562 558 562 558 448 621 c 1,37,-1
 279 49 l 1,38,39
 309 40 309 40 345 40 c 0,40,33
 448 40 448 40 505 115.5 c 128,-1,34
EndSplineSet
EndChar

StartChar: Otilde
Encoding: 213 213 39
Width: 691
GlyphClass: 2
Flags: W
LayerCount: 2
Fore
SplineSet
370 798.5 m 0
 355 805 355 805 333 818 c 0
 317 828 317 828 306.5 833 c 0
 296 838 296 838 286 838 c 0
 269 838 269 838 256.5 828.5 c 0
 244 819 244 819 230 798 c 1
 194 816 l 1
 231 884 231 884 286 884 c 0
 303 884 303 884 317.5 878 c 0
 332 872 332 872 350 860 c 0
 368 849 368 849 379 844 c 0
 390 839 390 839 403 839 c 0
 419 839 419 839 431.5 849 c 0
 444 859 444 859 459 882 c 1
 495 864 l 1
 460 792 460 792 403 792 c 0
 385 792 385 792 370 798.5 c 0
EndSplineSet
Refer: 33 79 N 1 0 0 1 0 0 0
EndChar

StartChar: P
Encoding: 80 80 40
Width: 570
GlyphClass: 2
Flags: W
LayerCount: 2
Fore
SplineSet
459.5 634.5 m 128,-1,1
 525 584 525 584 525 480 c 0,2,3
 525 370 525 370 456.5 318.5 c 128,-1,4
 388 267 388 267 269 267 c 2,5,-1
 171 267 l 1,6,-1
 171 0 l 1,7,-1
 111 0 l 1,8,-1
 111 685 l 1,9,-1
 272 685 l 2,10,0
 394 685 394 685 459.5 634.5 c 128,-1,1
412 353 m 128,-1,12
 462 390 462 390 462 479 c 0,13,14
 462 563 462 563 413.5 599.5 c 128,-1,15
 365 636 365 636 271 636 c 2,16,-1
 171 636 l 1,17,-1
 171 316 l 1,18,-1
 269 316 l 2,19,11
 362 316 362 316 412 353 c 128,-1,12
EndSplineSet
EndChar

StartChar: Thorn
Encoding: 222 222 41
Width: 570
GlyphClass: 2
Flags: W
LayerCount: 2
Fore
SplineSet
460 512 m 128,-1,1
 525 461 525 461 525 356 c 0,2,3
 525 242 525 242 456.5 189 c 128,-1,4
 388 136 388 136 269 136 c 2,5,-1
 171 136 l 1,6,-1
 171 0 l 1,7,-1
 111 0 l 1,8,-1
 111 685 l 1,9,-1
 171 685 l 1,10,-1
 171 563 l 1,11,-1
 272 563 l 2,12,0
 395 563 395 563 460 512 c 128,-1,1
412 223.5 m 128,-1,14
 462 261 462 261 462 355 c 0,15,16
 462 440 462 440 414 476.5 c 128,-1,17
 366 513 366 513 271 513 c 2,18,-1
 171 513 l 1,19,-1
 171 186 l 1,20,-1
 269 186 l 2,21,13
 362 186 362 186 412 223.5 c 128,-1,14
EndSplineSet
EndChar

StartChar: Q
Encoding: 81 81 42
Width: 690
GlyphClass: 2
Flags: W
LayerCount: 2
Fore
SplineSet
559.5 6.5 m 128,-1,1
 610 -10 610 -10 649 -42 c 1,2,-1
 609 -93 l 1,3,4
 555 -45 555 -45 497 -27 c 128,-1,5
 439 -9 439 -9 345 -9 c 0,6,7
 262 -9 262 -9 199 31.5 c 128,-1,8
 136 72 136 72 101 150.5 c 128,-1,9
 66 229 66 229 66 341 c 0,10,11
 66 452 66 452 101 532 c 128,-1,12
 136 612 136 612 199.5 654 c 128,-1,13
 263 696 263 696 345 696 c 0,14,15
 429 696 429 696 492 655.5 c 128,-1,16
 555 615 555 615 590 535 c 128,-1,17
 625 455 625 455 625 342 c 0,18,19
 625 87 625 87 452 24 c 1,20,0
 509 23 509 23 559.5 6.5 c 128,-1,1
187.5 116 m 128,-1,22
 246 40 246 40 345 40 c 0,23,24
 448 40 448 40 505 115.5 c 128,-1,25
 562 191 562 191 562 342 c 0,26,27
 562 494 562 494 504.5 569.5 c 128,-1,28
 447 645 447 645 345 645 c 0,29,30
 245 645 245 645 187 568.5 c 128,-1,31
 129 492 129 492 129 341 c 0,32,21
 129 192 129 192 187.5 116 c 128,-1,22
EndSplineSet
EndChar

StartChar: R
Encoding: 82 82 43
Width: 590
GlyphClass: 2
Flags: W
LayerCount: 2
Fore
SplineSet
308 307 m 1,0,-1
 171 307 l 1,1,-1
 171 0 l 1,2,-1
 111 0 l 1,3,-1
 111 685 l 1,4,-1
 277 685 l 2,5,6
 521 685 521 685 521 499 c 0,7,8
 521 425 521 425 482 381 c 128,-1,9
 443 337 443 337 368 318 c 1,10,-1
 556 0 l 1,11,-1
 485 0 l 1,12,-1
 308 307 l 1,0,-1
285 356 m 2,13,14
 457 356 457 356 457 499 c 0,15,16
 457 569 457 569 414 602.5 c 128,-1,17
 371 636 371 636 275 636 c 2,18,-1
 171 636 l 1,19,-1
 171 356 l 1,20,-1
 285 356 l 2,13,14
EndSplineSet
EndChar

StartChar: S
Encoding: 83 83 44
Width: 539
GlyphClass: 2
Flags: W
LayerCount: 2
Fore
SplineSet
375.5 677.5 m 128,-1,1
 421 659 421 659 464 620 c 1,2,-1
 429 582 l 1,3,4
 390 615 390 615 353 630 c 128,-1,5
 316 645 316 645 269 645 c 0,6,7
 205 645 205 645 166 613.5 c 128,-1,8
 127 582 127 582 127 529 c 0,9,10
 127 493 127 493 141.5 469.5 c 128,-1,11
 156 446 156 446 190 427.5 c 128,-1,12
 224 409 224 409 287 390 c 0,13,14
 355 369 355 369 397 345 c 128,-1,15
 439 321 439 321 462 283 c 128,-1,16
 485 245 485 245 485 187 c 256,17,18
 485 129 485 129 457 84 c 128,-1,19
 429 39 429 39 377.5 14 c 128,-1,20
 326 -11 326 -11 258 -11 c 0,21,22
 130 -11 130 -11 39 75 c 1,23,-1
 73 113 l 1,24,25
 115 77 115 77 158 58.5 c 128,-1,26
 201 40 201 40 257 40 c 0,27,28
 331 40 331 40 377.5 79 c 128,-1,29
 424 118 424 118 424 185 c 0,30,31
 424 227 424 227 408.5 254 c 128,-1,32
 393 281 393 281 358.5 300.5 c 128,-1,33
 324 320 324 320 261 340 c 0,34,35
 156 372 156 372 111 414 c 128,-1,36
 66 456 66 456 66 528 c 0,37,38
 66 576 66 576 91.5 614.5 c 128,-1,39
 117 653 117 653 162.5 674.5 c 128,-1,40
 208 696 208 696 267 696 c 0,41,0
 330 696 330 696 375.5 677.5 c 128,-1,1
EndSplineSet
EndChar

StartChar: T
Encoding: 84 84 45
Width: 495
GlyphClass: 2
Flags: W
LayerCount: 2
Fore
SplineSet
485 685 m 1,0,-1
 478 632 l 1,1,-1
 277 632 l 1,2,-1
 277 0 l 1,3,-1
 218 0 l 1,4,-1
 218 632 l 1,5,-1
 15 632 l 1,6,-1
 15 685 l 1,7,-1
 485 685 l 1,0,-1
EndSplineSet
EndChar

StartChar: U
Encoding: 85 85 46
Width: 652
GlyphClass: 2
Flags: W
LayerCount: 2
Fore
SplineSet
551 214 m 2,0,1
 551 112 551 112 493 50.5 c 128,-1,2
 435 -11 435 -11 326 -11 c 0,3,4
 216 -11 216 -11 158.5 50 c 128,-1,5
 101 111 101 111 101 214 c 2,6,-1
 101 685 l 1,7,-1
 161 685 l 1,8,-1
 161 219 l 2,9,10
 161 133 161 133 201.5 87 c 128,-1,11
 242 41 242 41 326 41 c 256,12,13
 410 41 410 41 450 87.5 c 128,-1,14
 490 134 490 134 490 219 c 2,15,-1
 490 685 l 1,16,-1
 551 685 l 1,17,-1
 551 214 l 2,0,1
EndSplineSet
EndChar

StartChar: Uacute
Encoding: 218 218 47
Width: 652
GlyphClass: 2
Flags: W
LayerCount: 2
Fore
SplineSet
407 888 m 1
 433 836 l 1
 235 758 l 1
 219 792 l 1
 407 888 l 1
EndSplineSet
Refer: 46 85 N 1 0 0 1 0 0 0
EndChar

StartChar: Ucircumflex
Encoding: 219 219 48
Width: 652
GlyphClass: 2
Flags: W
LayerCount: 2
Fore
SplineSet
204 762 m 1
 178 792 l 1
 308 894 l 1
 344 894 l 1
 473 792 l 1
 447 762 l 1
 326 842 l 1
 204 762 l 1
EndSplineSet
Refer: 46 85 N 1 0 0 1 0 0 0
EndChar

StartChar: Udieresis
Encoding: 220 220 49
Width: 652
GlyphClass: 2
Flags: W
LayerCount: 2
Fore
SplineSet
259.5 856.5 m 0
 271 845 271 845 271 828 c 256
 271 811 271 811 259.5 800 c 0
 248 789 248 789 231 789 c 256
 214 789 214 789 202.5 800 c 0
 191 811 191 811 191 828 c 256
 191 845 191 845 202.5 856.5 c 0
 214 868 214 868 231 868 c 256
 248 868 248 868 259.5 856.5 c 0
448.5 856.5 m 0
 460 845 460 845 460 828 c 256
 460 811 460 811 448.5 800 c 0
 437 789 437 789 420 789 c 256
 403 789 403 789 391.5 800 c 0
 380 811 380 811 380 828 c 256
 380 845 380 845 391.5 856.5 c 0
 403 868 403 868 420 868 c 256
 437 868 437 868 448.5 856.5 c 0
EndSplineSet
Refer: 46 85 N 1 0 0 1 0 0 0
EndChar

StartChar: Ugrave
Encoding: 217 217 50
Width: 652
GlyphClass: 2
Flags: W
LayerCount: 2
Fore
SplineSet
240 888 m 1
 428 792 l 1
 412 758 l 1
 214 836 l 1
 240 888 l 1
EndSplineSet
Refer: 46 85 N 1 0 0 1 0 0 0
EndChar

StartChar: V
Encoding: 86 86 51
Width: 546
GlyphClass: 2
Flags: W
LayerCount: 2
Fore
SplineSet
530 685 m 1,0,-1
 307 0 l 1,1,-1
 240 0 l 1,2,-1
 16 685 l 1,3,-1
 81 685 l 1,4,-1
 274 62 l 1,5,-1
 468 685 l 1,6,-1
 530 685 l 1,0,-1
EndSplineSet
EndChar

StartChar: W
Encoding: 87 87 52
Width: 810
GlyphClass: 2
Flags: W
LayerCount: 2
Fore
SplineSet
779 685 m 1,0,-1
 629 0 l 1,1,-1
 554 0 l 1,2,-1
 404 618 l 1,3,-1
 254 0 l 1,4,-1
 181 0 l 1,5,-1
 30 685 l 1,6,-1
 91 685 l 1,7,-1
 221 56 l 1,8,-1
 371 685 l 1,9,-1
 438 685 l 1,10,-1
 591 56 l 1,11,-1
 722 685 l 1,12,-1
 779 685 l 1,0,-1
EndSplineSet
EndChar

StartChar: X
Encoding: 88 88 53
Width: 514
GlyphClass: 2
Flags: W
LayerCount: 2
Fore
SplineSet
290 371 m 1,0,-1
 504 0 l 1,1,-1
 436 0 l 1,2,-1
 254 329 l 1,3,-1
 75 0 l 1,4,-1
 10 0 l 1,5,-1
 219 368 l 1,6,-1
 31 685 l 1,7,-1
 99 685 l 1,8,-1
 255 408 l 1,9,-1
 411 685 l 1,10,-1
 476 685 l 1,11,-1
 290 371 l 1,0,-1
EndSplineSet
EndChar

StartChar: Y
Encoding: 89 89 54
Width: 523
GlyphClass: 2
Flags: W
LayerCount: 2
Fore
SplineSet
509 685 m 1,0,-1
 292 268 l 1,1,-1
 292 0 l 1,2,-1
 232 0 l 1,3,-1
 232 267 l 1,4,-1
 13 685 l 1,5,-1
 80 685 l 1,6,-1
 264 321 l 1,7,-1
 445 685 l 1,8,-1
 509 685 l 1,0,-1
EndSplineSet
EndChar

StartChar: Yacute
Encoding: 221 221 55
Width: 523
GlyphClass: 2
Flags: W
LayerCount: 2
Fore
SplineSet
342 888 m 1
 368 836 l 1
 170 758 l 1
 154 792 l 1
 342 888 l 1
EndSplineSet
Refer: 54 89 N 1 0 0 1 0 0 0
EndChar

StartChar: Z
Encoding: 90 90 56
Width: 516
GlyphClass: 2
Flags: W
LayerCount: 2
Fore
SplineSet
468 685 m 1,0,-1
 468 636 l 1,1,-1
 104 53 l 1,2,-1
 462 53 l 1,3,-1
 454 0 l 1,4,-1
 35 0 l 1,5,-1
 35 50 l 1,6,-1
 402 633 l 1,7,-1
 73 633 l 1,8,-1
 73 685 l 1,9,-1
 468 685 l 1,0,-1
EndSplineSet
EndChar

StartChar: a
Encoding: 97 97 57
Width: 536
GlyphClass: 2
Flags: W
LayerCount: 2
Fore
SplineSet
441.5 57 m 128,-1,1
 452 39 452 39 475 30 c 1,2,-1
 462 -11 l 1,3,4
 426 -4 426 -4 406.5 16 c 128,-1,5
 387 36 387 36 381 77 c 1,6,7
 327 -11 327 -11 218 -11 c 0,8,9
 143 -11 143 -11 99.5 31.5 c 128,-1,10
 56 74 56 74 56 145 c 0,11,12
 56 226 56 226 113.5 270 c 128,-1,13
 171 314 171 314 273 314 c 2,14,-1
 373 314 l 1,15,-1
 373 365 l 2,16,17
 373 428 373 428 345 456.5 c 128,-1,18
 317 485 317 485 252 485 c 0,19,20
 192 485 192 485 110 455 c 1,21,-1
 95 499 l 1,22,23
 183 534 183 534 260 534 c 0,24,25
 431 534 431 534 431 368 c 2,26,-1
 431 116 l 2,27,0
 431 75 431 75 441.5 57 c 128,-1,1
373 128 m 1,29,-1
 373 272 l 1,30,-1
 282 272 l 2,31,32
 202 272 202 272 160 241 c 128,-1,33
 118 210 118 210 118 148 c 0,34,35
 118 94 118 94 147 65 c 128,-1,36
 176 36 176 36 228 36 c 0,37,28
 322 36 322 36 373 128 c 1,29,-1
EndSplineSet
Substitution2: "Single Substitution lookup 19 subtable" ordfeminine
EndChar

StartChar: aacute
Encoding: 225 225 58
Width: 536
GlyphClass: 2
Flags: W
LayerCount: 2
Fore
SplineSet
333 782 m 1
 359 730 l 1
 164 645 l 1
 145 679 l 1
 333 782 l 1
EndSplineSet
Refer: 57 97 N 1 0 0 1 0 0 0
EndChar

StartChar: acircumflex
Encoding: 226 226 59
Width: 536
GlyphClass: 2
Flags: W
LayerCount: 2
Fore
SplineSet
136 643 m 1
 110 674 l 1
 239 779 l 1
 275 779 l 1
 405 674 l 1
 379 643 l 1
 257 728 l 1
 136 643 l 1
EndSplineSet
Refer: 57 97 N 1 0 0 1 0 0 0
EndChar

StartChar: adieresis
Encoding: 228 228 60
Width: 536
GlyphClass: 2
Flags: W
LayerCount: 2
Fore
SplineSet
191.5 730.5 m 0
 203 719 203 719 203 702 c 256
 203 685 203 685 191.5 674 c 0
 180 663 180 663 163 663 c 256
 146 663 146 663 134.5 674 c 0
 123 685 123 685 123 702 c 256
 123 719 123 719 134.5 730.5 c 0
 146 742 146 742 163 742 c 256
 180 742 180 742 191.5 730.5 c 0
380.5 730.5 m 0
 392 719 392 719 392 702 c 256
 392 685 392 685 380.5 674 c 0
 369 663 369 663 352 663 c 256
 335 663 335 663 323.5 674 c 0
 312 685 312 685 312 702 c 256
 312 719 312 719 323.5 730.5 c 0
 335 742 335 742 352 742 c 256
 369 742 369 742 380.5 730.5 c 0
EndSplineSet
Refer: 57 97 N 1 0 0 1 0 0 0
EndChar

StartChar: agrave
Encoding: 224 224 61
Width: 536
GlyphClass: 2
Flags: W
LayerCount: 2
Fore
SplineSet
181 782 m 1
 369 679 l 1
 351 645 l 1
 155 730 l 1
 181 782 l 1
EndSplineSet
Refer: 57 97 N 1 0 0 1 0 0 0
EndChar

StartChar: aring
Encoding: 229 229 62
Width: 536
GlyphClass: 2
Flags: W
LayerCount: 2
Fore
SplineSet
328.5 794.5 m 0
 356 768 356 768 356 727 c 256
 356 686 356 686 328.5 659.5 c 0
 301 633 301 633 258 633 c 0
 214 633 214 633 186.5 659.5 c 0
 159 686 159 686 159 727 c 256
 159 768 159 768 186.5 794.5 c 0
 214 821 214 821 258 821 c 0
 301 821 301 821 328.5 794.5 c 0
216.5 769.5 m 0
 202 754 202 754 202 727 c 0
 202 699 202 699 216.5 684 c 0
 231 669 231 669 258 669 c 0
 284 669 284 669 298.5 684 c 0
 313 699 313 699 313 727 c 0
 313 754 313 754 298.5 769.5 c 0
 284 785 284 785 258 785 c 0
 231 785 231 785 216.5 769.5 c 0
EndSplineSet
Refer: 57 97 N 1 0 0 1 0 0 0
EndChar

StartChar: atilde
Encoding: 227 227 63
Width: 536
GlyphClass: 2
Flags: W
LayerCount: 2
Fore
SplineSet
283 672.5 m 0
 268 679 268 679 246 692 c 0
 230 702 230 702 219.5 707 c 0
 209 712 209 712 199 712 c 0
 182 712 182 712 169.5 702.5 c 0
 157 693 157 693 143 672 c 1
 107 690 l 1
 144 758 144 758 199 758 c 0
 216 758 216 758 230.5 752 c 0
 245 746 245 746 263 734 c 0
 281 723 281 723 292 718 c 0
 303 713 303 713 316 713 c 0
 332 713 332 713 344.5 723 c 0
 357 733 357 733 372 756 c 1
 408 738 l 1
 373 666 373 666 316 666 c 0
 298 666 298 666 283 672.5 c 0
EndSplineSet
Refer: 57 97 N 1 0 0 1 0 0 0
EndChar

StartChar: ae
Encoding: 230 230 64
Width: 847
GlyphClass: 2
Flags: W
LayerCount: 2
Fore
SplineSet
786 239 m 1,1,-1
 437 239 l 1,2,3
 441 137 441 137 484.5 87.5 c 128,-1,4
 528 38 528 38 599 38 c 0,5,6
 640 38 640 38 672 50.5 c 128,-1,7
 704 63 704 63 740 90 c 1,8,-1
 768 53 l 1,9,10
 729 21 729 21 687.5 5 c 128,-1,11
 646 -11 646 -11 596 -11 c 0,12,13
 533 -11 533 -11 485.5 16.5 c 128,-1,14
 438 44 438 44 410 96 c 1,15,16
 370 39 370 39 324.5 14 c 128,-1,17
 279 -11 279 -11 220 -11 c 0,18,19
 144 -11 144 -11 100 32 c 128,-1,20
 56 75 56 75 56 145 c 0,21,22
 56 226 56 226 114.5 270.5 c 128,-1,23
 173 315 173 315 275 315 c 2,24,-1
 375 315 l 1,25,-1
 375 365 l 2,26,27
 375 428 375 428 346.5 456.5 c 128,-1,28
 318 485 318 485 254 485 c 0,29,30
 194 485 194 485 112 455 c 1,31,-1
 96 499 l 1,32,33
 184 534 184 534 261 534 c 0,34,35
 327 534 327 534 366 508.5 c 128,-1,36
 405 483 405 483 421 433 c 1,37,38
 475 534 475 534 588 534 c 0,39,40
 685 534 685 534 736.5 466.5 c 128,-1,41
 788 399 788 399 788 281 c 0,42,0
 788 259 788 259 786 239 c 1,1,-1
730 299 m 2,43,44
 730 387 730 387 694 436.5 c 128,-1,45
 658 486 658 486 587 486 c 0,46,47
 522 486 522 486 481.5 436 c 128,-1,48
 441 386 441 386 437 284 c 1,49,-1
 730 284 l 1,50,-1
 730 299 l 2,43,44
316.5 60.5 m 128,-1,52
 354 85 354 85 391 141 c 1,53,54
 375 195 375 195 375 256 c 2,55,-1
 375 272 l 1,56,-1
 283 272 l 2,57,58
 204 272 204 272 161.5 240.5 c 128,-1,59
 119 209 119 209 119 148 c 0,60,61
 119 94 119 94 148 65 c 128,-1,62
 177 36 177 36 229 36 c 0,63,51
 279 36 279 36 316.5 60.5 c 128,-1,52
EndSplineSet
EndChar

StartChar: b
Encoding: 98 98 65
Width: 581
GlyphClass: 2
Flags: W
LayerCount: 2
Fore
SplineSet
462 464 m 128,-1,1
 512 394 512 394 512 264 c 0,2,3
 512 137 512 137 459.5 63 c 128,-1,4
 407 -11 407 -11 313 -11 c 0,5,6
 266 -11 266 -11 227.5 10 c 128,-1,7
 189 31 189 31 163 66 c 1,8,-1
 157 0 l 1,9,-1
 106 0 l 1,10,-1
 106 736 l 1,11,-1
 164 743 l 1,12,-1
 164 450 l 1,13,14
 226 534 226 534 321 534 c 0,15,0
 412 534 412 534 462 464 c 128,-1,1
411.5 94.5 m 128,-1,17
 450 152 450 152 450 264 c 0,18,19
 450 486 450 486 309 486 c 0,20,21
 262 486 262 486 228 462.5 c 128,-1,22
 194 439 194 439 164 396 c 1,23,-1
 164 121 l 1,24,25
 189 82 189 82 224 59.5 c 128,-1,26
 259 37 259 37 302 37 c 0,27,16
 373 37 373 37 411.5 94.5 c 128,-1,17
EndSplineSet
EndChar

StartChar: c
Encoding: 99 99 66
Width: 469
GlyphClass: 2
Flags: W
LayerCount: 2
Fore
SplineSet
365 521.5 m 128,-1,1
 400 509 400 509 433 481 c 1,2,-1
 404 443 l 1,3,4
 378 464 378 464 350.5 474 c 128,-1,5
 323 484 323 484 288 484 c 0,6,7
 214 484 214 484 170 426.5 c 128,-1,8
 126 369 126 369 126 259 c 0,9,10
 126 150 126 150 169.5 95 c 128,-1,11
 213 40 213 40 287 40 c 0,12,13
 322 40 322 40 350.5 51 c 128,-1,14
 379 62 379 62 408 84 c 1,15,-1
 436 45 l 1,16,17
 370 -11 370 -11 286 -11 c 0,18,19
 219 -11 219 -11 169 21 c 128,-1,20
 119 53 119 53 91.5 113.5 c 128,-1,21
 64 174 64 174 64 258 c 0,22,23
 64 341 64 341 91.5 403.5 c 128,-1,24
 119 466 119 466 169 500 c 128,-1,25
 219 534 219 534 285 534 c 0,26,0
 330 534 330 534 365 521.5 c 128,-1,1
EndSplineSet
EndChar

StartChar: ccedilla
Encoding: 231 231 67
Width: 469
GlyphClass: 2
Flags: W
LayerCount: 2
Fore
SplineSet
367.5 -88 m 128,-1,1
 390 -108 390 -108 390 -140 c 0,2,3
 390 -181 390 -181 360 -204 c 128,-1,4
 330 -227 330 -227 285 -227 c 0,5,6
 237 -227 237 -227 205 -206 c 1,7,-1
 223 -170 l 1,8,9
 250 -185 250 -185 284 -185 c 0,10,11
 308 -185 308 -185 323.5 -174 c 128,-1,12
 339 -163 339 -163 339 -140 c 0,13,14
 339 -118 339 -118 317.5 -107 c 128,-1,15
 296 -96 296 -96 250 -96 c 1,16,-1
 258 -9 l 1,17,18
 168 1 168 1 116 71 c 128,-1,19
 64 141 64 141 64 258 c 0,20,21
 64 341 64 341 91.5 403.5 c 128,-1,22
 119 466 119 466 169 500 c 128,-1,23
 219 534 219 534 285 534 c 0,24,25
 330 534 330 534 365 521.5 c 128,-1,26
 400 509 400 509 433 481 c 1,27,-1
 404 443 l 1,28,29
 378 464 378 464 350.5 474 c 128,-1,30
 323 484 323 484 288 484 c 0,31,32
 214 484 214 484 170 426.5 c 128,-1,33
 126 369 126 369 126 259 c 0,34,35
 126 150 126 150 169.5 95 c 128,-1,36
 213 40 213 40 287 40 c 0,37,38
 322 40 322 40 350.5 51 c 128,-1,39
 379 62 379 62 408 84 c 1,40,-1
 436 45 l 1,41,42
 377 -7 377 -7 298 -11 c 1,43,-1
 298 -64 l 1,44,0
 345 -68 345 -68 367.5 -88 c 128,-1,1
EndSplineSet
EndChar

StartChar: d
Encoding: 100 100 68
Width: 585
GlyphClass: 2
Flags: W
LayerCount: 2
Fore
SplineSet
479 736 m 1,0,-1
 479 0 l 1,1,-1
 429 0 l 1,2,-1
 422 80 l 1,3,4
 368 -11 368 -11 265 -11 c 0,5,6
 174 -11 174 -11 121.5 61.5 c 128,-1,7
 69 134 69 134 69 259 c 0,8,9
 69 340 69 340 93.5 402 c 128,-1,10
 118 464 118 464 164.5 499 c 128,-1,11
 211 534 211 534 274 534 c 0,12,13
 363 534 363 534 421 463 c 1,14,-1
 421 743 l 1,15,-1
 479 736 l 1,0,-1
358.5 61 m 128,-1,17
 393 85 393 85 421 134 c 1,18,-1
 421 407 l 1,19,20
 365 486 365 486 284 486 c 0,21,22
 213 486 213 486 171.5 427 c 128,-1,23
 130 368 130 368 131 260 c 0,24,25
 131 152 131 152 169 94.5 c 128,-1,26
 207 37 207 37 274 37 c 0,27,16
 324 37 324 37 358.5 61 c 128,-1,17
EndSplineSet
EndChar

StartChar: eth
Encoding: 240 240 69
Width: 556
GlyphClass: 2
Flags: W
LayerCount: 2
Fore
SplineSet
448 508.5 m 128,-1,1
 487 417 487 417 487 280 c 0,2,3
 487 141 487 141 429 65 c 128,-1,4
 371 -11 371 -11 273 -11 c 0,5,6
 178 -11 178 -11 121 54.5 c 128,-1,7
 64 120 64 120 64 233 c 0,8,9
 64 295 64 295 86.5 348.5 c 128,-1,10
 109 402 109 402 153 435 c 128,-1,11
 197 468 197 468 259 468 c 0,12,13
 354 468 354 468 421 388 c 1,14,15
 410 464 410 464 378.5 522.5 c 128,-1,16
 347 581 347 581 289 628 c 1,17,-1
 212 551 l 1,18,-1
 170 570 l 1,19,-1
 250 653 l 1,20,21
 184 687 184 687 128 698 c 1,22,-1
 141 744 l 1,23,24
 218 729 218 729 286 689 c 1,25,-1
 355 762 l 1,26,-1
 390 731 l 1,27,-1
 324 664 l 1,28,0
 409 600 409 600 448 508.5 c 128,-1,1
387 100 m 128,-1,30
 428 163 428 163 428 282 c 0,31,32
 428 302 428 302 426 330 c 1,33,34
 360 421 360 421 267 421 c 0,35,36
 197 421 197 421 160.5 368.5 c 128,-1,37
 124 316 124 316 124 234 c 0,38,39
 124 140 124 140 163.5 88.5 c 128,-1,40
 203 37 203 37 273 37 c 0,41,29
 346 37 346 37 387 100 c 128,-1,30
EndSplineSet
EndChar

StartChar: e
Encoding: 101 101 70
Width: 536
GlyphClass: 2
Flags: W
LayerCount: 2
Fore
SplineSet
475 239 m 1,1,-1
 126 239 l 1,2,3
 131 137 131 137 174.5 87.5 c 128,-1,4
 218 38 218 38 289 38 c 0,5,6
 330 38 330 38 361.5 50.5 c 128,-1,7
 393 63 393 63 430 90 c 1,8,-1
 457 53 l 1,9,10
 418 21 418 21 377 5 c 128,-1,11
 336 -11 336 -11 286 -11 c 0,12,13
 182 -11 182 -11 123 60 c 128,-1,14
 64 131 64 131 64 257 c 0,15,16
 64 340 64 340 89.5 402.5 c 128,-1,17
 115 465 115 465 162.5 499.5 c 128,-1,18
 210 534 210 534 273 534 c 0,19,20
 373 534 373 534 425 466.5 c 128,-1,21
 477 399 477 399 477 281 c 0,22,0
 477 259 477 259 475 239 c 1,1,-1
420 299 m 2,23,24
 420 387 420 387 383.5 436.5 c 128,-1,25
 347 486 347 486 275 486 c 0,26,27
 210 486 210 486 170 436 c 128,-1,28
 130 386 130 386 126 284 c 1,29,-1
 420 284 l 1,30,-1
 420 299 l 2,23,24
EndSplineSet
EndChar

StartChar: eacute
Encoding: 233 233 71
Width: 536
GlyphClass: 2
Flags: W
LayerCount: 2
Fore
SplineSet
351 782 m 1
 377 730 l 1
 182 645 l 1
 163 679 l 1
 351 782 l 1
EndSplineSet
Refer: 70 101 N 1 0 0 1 0 0 0
EndChar

StartChar: ecircumflex
Encoding: 234 234 72
Width: 536
GlyphClass: 2
Flags: W
LayerCount: 2
Fore
SplineSet
154 643 m 1
 128 674 l 1
 257 779 l 1
 293 779 l 1
 423 674 l 1
 397 643 l 1
 275 728 l 1
 154 643 l 1
EndSplineSet
Refer: 70 101 N 1 0 0 1 0 0 0
EndChar

StartChar: edieresis
Encoding: 235 235 73
Width: 536
GlyphClass: 2
Flags: W
LayerCount: 2
Fore
SplineSet
209.5 730.5 m 0
 221 719 221 719 221 702 c 256
 221 685 221 685 209.5 674 c 0
 198 663 198 663 181 663 c 256
 164 663 164 663 152.5 674 c 0
 141 685 141 685 141 702 c 256
 141 719 141 719 152.5 730.5 c 0
 164 742 164 742 181 742 c 256
 198 742 198 742 209.5 730.5 c 0
398.5 730.5 m 0
 410 719 410 719 410 702 c 256
 410 685 410 685 398.5 674 c 0
 387 663 387 663 370 663 c 256
 353 663 353 663 341.5 674 c 0
 330 685 330 685 330 702 c 256
 330 719 330 719 341.5 730.5 c 0
 353 742 353 742 370 742 c 256
 387 742 387 742 398.5 730.5 c 0
EndSplineSet
Refer: 70 101 N 1 0 0 1 0 0 0
EndChar

StartChar: egrave
Encoding: 232 232 74
Width: 536
GlyphClass: 2
Flags: W
LayerCount: 2
Fore
SplineSet
199 782 m 1
 387 679 l 1
 369 645 l 1
 173 730 l 1
 199 782 l 1
EndSplineSet
Refer: 70 101 N 1 0 0 1 0 0 0
EndChar

StartChar: f
Encoding: 102 102 75
Width: 321
GlyphClass: 2
Flags: W
LayerCount: 2
Fore
SplineSet
192.5 674 m 128,-1,1
 170 653 170 653 170 607 c 2,2,-1
 170 523 l 1,3,-1
 308 523 l 1,4,-1
 300 476 l 1,5,-1
 170 476 l 1,6,-1
 170 0 l 1,7,-1
 112 0 l 1,8,-1
 112 476 l 1,9,-1
 21 476 l 1,10,-1
 21 523 l 1,11,-1
 112 523 l 1,12,-1
 112 609 l 2,13,14
 112 671 112 671 150.5 707 c 128,-1,15
 189 743 189 743 257 743 c 0,16,17
 318 743 318 743 379 715 c 1,18,-1
 359 672 l 1,19,20
 307 695 307 695 260 695 c 0,21,0
 215 695 215 695 192.5 674 c 128,-1,1
EndSplineSet
EndChar

StartChar: g
Encoding: 103 103 76
Width: 503
GlyphClass: 2
Flags: W
LayerCount: 2
Fore
SplineSet
495 512 m 1,0,1
 447 499 447 499 350 497 c 1,2,3
 439 455 439 455 439 355 c 0,4,5
 439 278 439 278 388 230.5 c 128,-1,6
 337 183 337 183 250 183 c 0,7,8
 211 183 211 183 182 193 c 1,9,10
 163 182 163 182 152.5 166.5 c 128,-1,11
 142 151 142 151 142 133 c 0,12,13
 142 79 142 79 225 79 c 2,14,-1
 310 79 l 2,15,16
 387 79 387 79 432.5 41.5 c 128,-1,17
 478 4 478 4 478 -55 c 0,18,19
 478 -127 478 -127 421 -166 c 128,-1,20
 364 -205 364 -205 251 -205 c 0,21,22
 134 -205 134 -205 83.5 -169.5 c 128,-1,23
 33 -134 33 -134 33 -55 c 1,24,-1
 87 -55 l 1,25,26
 88 -93 88 -93 103 -115 c 128,-1,27
 118 -137 118 -137 153 -147 c 128,-1,28
 188 -157 188 -157 251 -157 c 0,29,30
 339 -157 339 -157 379 -131.5 c 128,-1,31
 419 -106 419 -106 419 -58 c 0,32,33
 419 -16 419 -16 388 6.5 c 128,-1,34
 357 29 357 29 301 29 c 2,35,-1
 216 29 l 2,36,37
 154 29 154 29 120.5 55 c 128,-1,38
 87 81 87 81 87 121 c 0,39,40
 87 147 87 147 102 170 c 128,-1,41
 117 193 117 193 144 210 c 1,42,43
 99 233 99 233 77.5 269 c 128,-1,44
 56 305 56 305 56 357 c 0,45,46
 56 436 56 436 109 485 c 128,-1,47
 162 534 162 534 248 534 c 0,48,49
 343 533 343 533 386.5 541 c 128,-1,50
 430 549 430 549 477 568 c 1,51,-1
 495 512 l 1,0,1
149.5 453 m 128,-1,53
 116 417 116 417 116 357 c 0,54,55
 116 295 116 295 151.5 260 c 128,-1,56
 187 225 187 225 248 225 c 0,57,58
 312 225 312 225 346 259.5 c 128,-1,59
 380 294 380 294 380 356 c 0,60,61
 380 419 380 419 346.5 454 c 128,-1,62
 313 489 313 489 248 489 c 256,63,52
 183 489 183 489 149.5 453 c 128,-1,53
EndSplineSet
EndChar

StartChar: h
Encoding: 104 104 77
Width: 584
GlyphClass: 2
Flags: W
LayerCount: 2
Fore
SplineSet
445 491.5 m 128,-1,1
 483 449 483 449 483 374 c 2,2,-1
 483 0 l 1,3,-1
 425 0 l 1,4,-1
 425 366 l 2,5,6
 425 487 425 487 326 487 c 0,7,8
 276 487 276 487 237.5 459.5 c 128,-1,9
 199 432 199 432 164 379 c 1,10,-1
 164 0 l 1,11,-1
 106 0 l 1,12,-1
 106 736 l 1,13,-1
 164 743 l 1,14,-1
 164 436 l 1,15,16
 234 534 234 534 337 534 c 0,17,0
 407 534 407 534 445 491.5 c 128,-1,1
EndSplineSet
EndChar

StartChar: i
Encoding: 105 105 78
Width: 270
GlyphClass: 2
Flags: W
LayerCount: 2
Fore
SplineSet
166 741 m 0
 178 729 178 729 178 711 c 256
 178 693 178 693 166 681 c 0
 154 669 154 669 134 669 c 0
 115 669 115 669 103 681 c 0
 91 693 91 693 91 711 c 256
 91 729 91 729 103 741 c 0
 115 753 115 753 134 753 c 0
 154 753 154 753 166 741 c 0
164 523 m 1
 164 0 l 1
 106 0 l 1
 106 523 l 1
 164 523 l 1
EndSplineSet
Substitution2: "Single Substitution lookup 19 subtable" dotlessi
Substitution2: "'locl' Localized Forms in Latin lookup 6 subtable" i.loclTRK
Substitution2: "'locl' Localized Forms in Latin lookup 4 subtable" i.loclTRK
Substitution2: "'locl' Localized Forms in Latin lookup 2 subtable" i.loclTRK
Substitution2: "'locl' Localized Forms in Latin lookup 1 subtable" i.loclTRK
Substitution2: "'locl' Localized Forms in Latin lookup 0 subtable" i.loclTRK
EndChar

StartChar: iacute
Encoding: 237 237 79
Width: 270
GlyphClass: 2
Flags: W
LayerCount: 2
Fore
SplineSet
210 782 m 1
 236 730 l 1
 41 645 l 1
 22 679 l 1
 210 782 l 1
164 523 m 1
 164 0 l 1
 106 0 l 1
 106 523 l 1
 164 523 l 1
EndSplineSet
EndChar

StartChar: icircumflex
Encoding: 238 238 80
Width: 270
GlyphClass: 2
Flags: W
LayerCount: 2
Fore
SplineSet
13 643 m 1
 -13 674 l 1
 116 779 l 1
 152 779 l 1
 282 674 l 1
 256 643 l 1
 134 728 l 1
 13 643 l 1
164 523 m 1
 164 0 l 1
 106 0 l 1
 106 523 l 1
 164 523 l 1
EndSplineSet
EndChar

StartChar: idieresis
Encoding: 239 239 81
Width: 270
GlyphClass: 2
Flags: W
LayerCount: 2
Fore
SplineSet
68.5 730.5 m 0
 80 719 80 719 80 702 c 256
 80 685 80 685 68.5 674 c 0
 57 663 57 663 40 663 c 256
 23 663 23 663 11.5 674 c 0
 0 685 0 685 0 702 c 256
 0 719 0 719 11.5 730.5 c 0
 23 742 23 742 40 742 c 256
 57 742 57 742 68.5 730.5 c 0
257.5 730.5 m 0
 269 719 269 719 269 702 c 256
 269 685 269 685 257.5 674 c 0
 246 663 246 663 229 663 c 256
 212 663 212 663 200.5 674 c 0
 189 685 189 685 189 702 c 256
 189 719 189 719 200.5 730.5 c 0
 212 742 212 742 229 742 c 256
 246 742 246 742 257.5 730.5 c 0
164 523 m 1
 164 0 l 1
 106 0 l 1
 106 523 l 1
 164 523 l 1
EndSplineSet
EndChar

StartChar: igrave
Encoding: 236 236 82
Width: 270
GlyphClass: 2
Flags: W
LayerCount: 2
Fore
SplineSet
58 782 m 1
 246 679 l 1
 228 645 l 1
 32 730 l 1
 58 782 l 1
164 523 m 1
 164 0 l 1
 106 0 l 1
 106 523 l 1
 164 523 l 1
EndSplineSet
EndChar

StartChar: j
Encoding: 106 106 83
Width: 270
GlyphClass: 2
Flags: W
LayerCount: 2
Fore
SplineSet
166 741 m 0
 178 729 178 729 178 711 c 256
 178 693 178 693 166 681 c 0
 154 669 154 669 134 669 c 0
 115 669 115 669 103 681 c 0
 91 693 91 693 91 711 c 256
 91 729 91 729 103 741 c 0
 115 753 115 753 134 753 c 0
 154 753 154 753 166 741 c 0
164 19 m 2
 164 -49 164 -49 149 -89.5 c 0
 134 -130 134 -130 105 -154.5 c 0
 76 -179 76 -179 23 -203 c 1
 6 -161 l 1
 44 -142 44 -142 64.5 -123.5 c 0
 85 -105 85 -105 95.5 -72.5 c 0
 106 -40 106 -40 106 17 c 2
 106 523 l 1
 164 523 l 1
 164 19 l 2
EndSplineSet
EndChar

StartChar: k
Encoding: 107 107 84
Width: 488
GlyphClass: 2
Flags: W
LayerCount: 2
Fore
SplineSet
164 743 m 1,0,-1
 164 0 l 1,1,-1
 106 0 l 1,2,-1
 106 736 l 1,3,-1
 164 743 l 1,0,-1
457 523 m 1,4,-1
 237 289 l 1,5,-1
 480 0 l 1,6,-1
 410 0 l 1,7,-1
 170 286 l 1,8,-1
 390 523 l 1,9,-1
 457 523 l 1,4,-1
EndSplineSet
EndChar

StartChar: l
Encoding: 108 108 85
Width: 284
GlyphClass: 2
Flags: W
LayerCount: 2
Fore
SplineSet
125.5 14 m 128,-1,1
 101 39 101 39 101 88 c 2,2,-1
 101 736 l 1,3,-1
 159 743 l 1,4,-1
 159 90 l 2,5,6
 159 39 159 39 201 39 c 0,7,8
 222 39 222 39 237 46 c 1,9,-1
 253 3 l 1,10,11
 225 -11 225 -11 193 -11 c 0,12,0
 150 -11 150 -11 125.5 14 c 128,-1,1
EndSplineSet
EndChar

StartChar: m
Encoding: 109 109 86
Width: 853
GlyphClass: 2
Flags: W
LayerCount: 2
Fore
SplineSet
715.5 491 m 128,-1,1
 752 448 752 448 752 374 c 2,2,-1
 752 0 l 1,3,-1
 694 0 l 1,4,-1
 694 366 l 2,5,6
 694 428 694 428 670.5 457.5 c 128,-1,7
 647 487 647 487 605 487 c 0,8,9
 561 487 561 487 526 459 c 128,-1,10
 491 431 491 431 458 379 c 1,11,-1
 458 0 l 1,12,-1
 400 0 l 1,13,-1
 400 366 l 2,14,15
 400 428 400 428 376.5 457.5 c 128,-1,16
 353 487 353 487 311 487 c 0,17,18
 266 487 266 487 231 459 c 128,-1,19
 196 431 196 431 164 379 c 1,20,-1
 164 0 l 1,21,-1
 106 0 l 1,22,-1
 106 523 l 1,23,-1
 156 523 l 1,24,-1
 161 434 l 1,25,26
 191 481 191 481 232 507.5 c 128,-1,27
 273 534 273 534 322 534 c 0,28,29
 372 534 372 534 406 506.5 c 128,-1,30
 440 479 440 479 452 430 c 1,31,32
 483 479 483 479 524.5 506.5 c 128,-1,33
 566 534 566 534 616 534 c 0,34,0
 679 534 679 534 715.5 491 c 128,-1,1
EndSplineSet
EndChar

StartChar: n
Encoding: 110 110 87
Width: 584
GlyphClass: 2
Flags: W
LayerCount: 2
Fore
SplineSet
445.5 492 m 128,-1,1
 483 450 483 450 483 374 c 2,2,-1
 483 0 l 1,3,-1
 425 0 l 1,4,-1
 425 366 l 2,5,6
 425 429 425 429 400 458 c 128,-1,7
 375 487 375 487 326 487 c 0,8,9
 276 487 276 487 237.5 459.5 c 128,-1,10
 199 432 199 432 164 379 c 1,11,-1
 164 0 l 1,12,-1
 106 0 l 1,13,-1
 106 523 l 1,14,-1
 156 523 l 1,15,-1
 162 434 l 1,16,17
 194 481 194 481 238 507.5 c 128,-1,18
 282 534 282 534 337 534 c 0,19,0
 408 534 408 534 445.5 492 c 128,-1,1
EndSplineSet
EndChar

StartChar: ntilde
Encoding: 241 241 88
Width: 584
GlyphClass: 2
Flags: W
LayerCount: 2
Fore
SplineSet
322 672.5 m 0
 307 679 307 679 285 692 c 0
 269 702 269 702 258.5 707 c 0
 248 712 248 712 238 712 c 0
 221 712 221 712 208.5 702.5 c 0
 196 693 196 693 182 672 c 1
 146 690 l 1
 183 758 183 758 238 758 c 0
 255 758 255 758 269.5 752 c 0
 284 746 284 746 302 734 c 0
 320 723 320 723 331 718 c 0
 342 713 342 713 355 713 c 0
 371 713 371 713 383.5 723 c 0
 396 733 396 733 411 756 c 1
 447 738 l 1
 412 666 412 666 355 666 c 0
 337 666 337 666 322 672.5 c 0
EndSplineSet
Refer: 87 110 N 1 0 0 1 0 0 0
EndChar

StartChar: o
Encoding: 111 111 89
Width: 571
GlyphClass: 2
Flags: W
LayerCount: 2
Fore
SplineSet
448.5 462.5 m 128,-1,1
 507 391 507 391 507 263 c 0,2,3
 507 136 507 136 447.5 62.5 c 128,-1,4
 388 -11 388 -11 285 -11 c 0,5,6
 181 -11 181 -11 122.5 61.5 c 128,-1,7
 64 134 64 134 64 261 c 0,8,9
 64 344 64 344 91 406 c 128,-1,10
 118 468 118 468 168 501 c 128,-1,11
 218 534 218 534 286 534 c 0,12,0
 390 534 390 534 448.5 462.5 c 128,-1,1
168 428 m 128,-1,14
 126 371 126 371 126 261 c 0,15,16
 126 152 126 152 167.5 95 c 128,-1,17
 209 38 209 38 285 38 c 256,18,19
 361 38 361 38 403.5 95 c 128,-1,20
 446 152 446 152 446 263 c 0,21,22
 446 372 446 372 404.5 428.5 c 128,-1,23
 363 485 363 485 286 485 c 0,24,13
 210 485 210 485 168 428 c 128,-1,14
EndSplineSet
Substitution2: "Single Substitution lookup 19 subtable" ordmasculine
EndChar

StartChar: oacute
Encoding: 243 243 90
Width: 571
GlyphClass: 2
Flags: W
LayerCount: 2
Fore
SplineSet
361 782 m 1
 387 730 l 1
 192 645 l 1
 173 679 l 1
 361 782 l 1
EndSplineSet
Refer: 89 111 N 1 0 0 1 0 0 0
Substitution2: "'locl' Localized Forms in Latin lookup 3 subtable" oacute.loclPLK
EndChar

StartChar: ocircumflex
Encoding: 244 244 91
Width: 571
GlyphClass: 2
Flags: W
LayerCount: 2
Fore
SplineSet
164 643 m 1
 138 674 l 1
 267 779 l 1
 303 779 l 1
 433 674 l 1
 407 643 l 1
 285 728 l 1
 164 643 l 1
EndSplineSet
Refer: 89 111 N 1 0 0 1 0 0 0
EndChar

StartChar: odieresis
Encoding: 246 246 92
Width: 571
GlyphClass: 2
Flags: W
LayerCount: 2
Fore
SplineSet
219.5 730.5 m 0
 231 719 231 719 231 702 c 256
 231 685 231 685 219.5 674 c 0
 208 663 208 663 191 663 c 256
 174 663 174 663 162.5 674 c 0
 151 685 151 685 151 702 c 256
 151 719 151 719 162.5 730.5 c 0
 174 742 174 742 191 742 c 256
 208 742 208 742 219.5 730.5 c 0
408.5 730.5 m 0
 420 719 420 719 420 702 c 256
 420 685 420 685 408.5 674 c 0
 397 663 397 663 380 663 c 256
 363 663 363 663 351.5 674 c 0
 340 685 340 685 340 702 c 256
 340 719 340 719 351.5 730.5 c 0
 363 742 363 742 380 742 c 256
 397 742 397 742 408.5 730.5 c 0
EndSplineSet
Refer: 89 111 N 1 0 0 1 0 0 0
EndChar

StartChar: ograve
Encoding: 242 242 93
Width: 571
GlyphClass: 2
Flags: W
LayerCount: 2
Fore
SplineSet
209 782 m 1
 397 679 l 1
 379 645 l 1
 183 730 l 1
 209 782 l 1
EndSplineSet
Refer: 89 111 N 1 0 0 1 0 0 0
EndChar

StartChar: oslash
Encoding: 248 248 94
Width: 571
GlyphClass: 2
Flags: W
LayerCount: 2
Fore
SplineSet
478.5 414.5 m 128,-1,1
 507 352 507 352 507 263 c 0,2,3
 507 136 507 136 447.5 62.5 c 128,-1,4
 388 -11 388 -11 285 -11 c 0,5,6
 254 -11 254 -11 224 -3 c 1,7,-1
 183 -125 l 1,8,-1
 134 -111 l 1,9,-1
 177 15 l 1,10,11
 123 46 123 46 93.5 109.5 c 128,-1,12
 64 173 64 173 64 261 c 0,13,14
 64 344 64 344 91 406 c 128,-1,15
 118 468 118 468 168 501 c 128,-1,16
 218 534 218 534 286 534 c 0,17,18
 319 534 319 534 349 526 c 1,19,-1
 388 648 l 1,20,-1
 437 634 l 1,21,-1
 396 507 l 1,22,0
 450 477 450 477 478.5 414.5 c 128,-1,1
199 61 m 1,24,-1
 337 478 l 1,25,26
 316 485 316 485 286 485 c 0,27,28
 210 485 210 485 168 428 c 128,-1,29
 126 371 126 371 126 261 c 0,30,23
 126 111 126 111 199 61 c 1,24,-1
403.5 95 m 128,-1,32
 446 152 446 152 446 263 c 0,33,34
 446 412 446 412 374 461 c 1,35,-1
 236 44 l 1,36,37
 259 38 259 38 285 38 c 0,38,31
 361 38 361 38 403.5 95 c 128,-1,32
EndSplineSet
EndChar

StartChar: otilde
Encoding: 245 245 95
Width: 571
GlyphClass: 2
Flags: W
LayerCount: 2
Fore
SplineSet
311 672.5 m 0
 296 679 296 679 274 692 c 0
 258 702 258 702 247.5 707 c 0
 237 712 237 712 227 712 c 0
 210 712 210 712 197.5 702.5 c 0
 185 693 185 693 171 672 c 1
 135 690 l 1
 172 758 172 758 227 758 c 0
 244 758 244 758 258.5 752 c 0
 273 746 273 746 291 734 c 0
 309 723 309 723 320 718 c 0
 331 713 331 713 344 713 c 0
 360 713 360 713 372.5 723 c 0
 385 733 385 733 400 756 c 1
 436 738 l 1
 401 666 401 666 344 666 c 0
 326 666 326 666 311 672.5 c 0
EndSplineSet
Refer: 89 111 N 1 0 0 1 0 0 0
EndChar

StartChar: p
Encoding: 112 112 96
Width: 581
GlyphClass: 2
Flags: W
LayerCount: 2
Fore
SplineSet
464.5 463.5 m 128,-1,1
 512 393 512 393 512 264 c 0,2,3
 512 138 512 138 460.5 63.5 c 128,-1,4
 409 -11 409 -11 313 -11 c 0,5,6
 266 -11 266 -11 228 8.5 c 128,-1,7
 190 28 190 28 164 61 c 1,8,-1
 164 -197 l 1,9,-1
 106 -205 l 1,10,-1
 106 523 l 1,11,-1
 156 523 l 1,12,-1
 161 447 l 1,13,14
 190 488 190 488 231.5 511 c 128,-1,15
 273 534 273 534 322 534 c 0,16,0
 417 534 417 534 464.5 463.5 c 128,-1,1
412 95 m 128,-1,18
 450 152 450 152 450 264 c 0,19,20
 450 486 450 486 311 486 c 0,21,22
 264 486 264 486 229.5 462 c 128,-1,23
 195 438 195 438 164 396 c 1,24,-1
 164 118 l 1,25,26
 216 38 216 38 302 38 c 0,27,17
 374 38 374 38 412 95 c 128,-1,18
EndSplineSet
EndChar

StartChar: thorn
Encoding: 254 254 97
Width: 581
GlyphClass: 2
Flags: W
LayerCount: 2
Fore
SplineSet
464.5 463.5 m 128,-1,1
 512 393 512 393 512 264 c 0,2,3
 512 138 512 138 460.5 63.5 c 128,-1,4
 409 -11 409 -11 313 -11 c 0,5,6
 266 -11 266 -11 228 8.5 c 128,-1,7
 190 28 190 28 164 61 c 1,8,-1
 164 -195 l 1,9,-1
 106 -205 l 1,10,-1
 106 736 l 1,11,-1
 164 743 l 1,12,-1
 164 451 l 1,13,14
 193 491 193 491 233 512.5 c 128,-1,15
 273 534 273 534 322 534 c 0,16,0
 417 534 417 534 464.5 463.5 c 128,-1,1
412 95 m 128,-1,18
 450 152 450 152 450 264 c 0,19,20
 450 486 450 486 311 486 c 0,21,22
 264 486 264 486 229.5 462 c 128,-1,23
 195 438 195 438 164 396 c 1,24,-1
 164 118 l 1,25,26
 216 38 216 38 302 38 c 0,27,17
 374 38 374 38 412 95 c 128,-1,18
EndSplineSet
EndChar

StartChar: q
Encoding: 113 113 98
Width: 585
GlyphClass: 2
Flags: W
LayerCount: 2
Fore
SplineSet
479 523 m 1,0,-1
 479 -205 l 1,1,-1
 421 -197 l 1,2,-1
 421 76 l 1,3,4
 396 36 396 36 357 12.5 c 128,-1,5
 318 -11 318 -11 265 -11 c 0,6,7
 174 -11 174 -11 121.5 61.5 c 128,-1,8
 69 134 69 134 69 259 c 0,9,10
 69 340 69 340 94 402 c 128,-1,11
 119 464 119 464 165.5 499 c 128,-1,12
 212 534 212 534 275 534 c 0,13,14
 365 534 365 534 425 460 c 1,15,-1
 429 523 l 1,16,-1
 479 523 l 1,0,-1
359 61 m 128,-1,18
 393 85 393 85 421 133 c 1,19,-1
 421 408 l 1,20,21
 366 486 366 486 285 486 c 0,22,23
 214 486 214 486 172 427 c 128,-1,24
 130 368 130 368 131 260 c 0,25,26
 131 152 131 152 169 94.5 c 128,-1,27
 207 37 207 37 275 37 c 0,28,17
 325 37 325 37 359 61 c 128,-1,18
EndSplineSet
EndChar

StartChar: r
Encoding: 114 114 99
Width: 373
GlyphClass: 2
Flags: W
LayerCount: 2
Fore
SplineSet
361 528 m 1,1,-1
 350 473 l 1,2,3
 328 479 328 479 304 479 c 0,4,5
 251 479 251 479 218.5 440.5 c 128,-1,6
 186 402 186 402 164 320 c 1,7,-1
 164 0 l 1,8,-1
 106 0 l 1,9,-1
 106 523 l 1,10,-1
 156 523 l 1,11,-1
 161 406 l 1,12,13
 182 471 182 471 218.5 502.5 c 128,-1,14
 255 534 255 534 309 534 c 0,15,0
 340 534 340 534 361 528 c 1,1,-1
EndSplineSet
EndChar

StartChar: s
Encoding: 115 115 100
Width: 464
GlyphClass: 2
Flags: W
LayerCount: 2
Fore
SplineSet
323 519.5 m 128,-1,1
 363 505 363 505 401 476 c 1,2,-1
 374 438 l 1,3,4
 338 463 338 463 306 474.5 c 128,-1,5
 274 486 274 486 236 486 c 0,6,7
 184 486 184 486 152 462 c 128,-1,8
 120 438 120 438 120 398 c 0,9,10
 120 360 120 360 147.5 339 c 128,-1,11
 175 318 175 318 247 299 c 0,12,13
 336 276 336 276 375.5 241 c 128,-1,14
 415 206 415 206 415 141 c 0,15,16
 415 71 415 71 361 30 c 128,-1,17
 307 -11 307 -11 226 -11 c 0,18,19
 166 -11 166 -11 121 6.5 c 128,-1,20
 76 24 76 24 39 56 c 1,21,-1
 71 93 l 1,22,23
 106 65 106 65 142.5 51.5 c 128,-1,24
 179 38 179 38 225 38 c 0,25,26
 283 38 283 38 318.5 64.5 c 128,-1,27
 354 91 354 91 354 138 c 0,28,29
 354 170 354 170 342 190 c 128,-1,30
 330 210 330 210 301 224.5 c 128,-1,31
 272 239 272 239 216 254 c 0,32,33
 133 276 133 276 96.5 309 c 128,-1,34
 60 342 60 342 60 397 c 0,35,36
 60 436 60 436 83 467.5 c 128,-1,37
 106 499 106 499 145.5 516.5 c 128,-1,38
 185 534 185 534 234 534 c 256,39,0
 283 534 283 534 323 519.5 c 128,-1,1
EndSplineSet
EndChar

StartChar: germandbls
Encoding: 223 223 101
Width: 582
GlyphClass: 2
Flags: W
LayerCount: 2
Fore
SplineSet
412.5 705 m 128,-1,1
 458 667 458 667 458 609 c 0,2,3
 458 569 458 569 440 544 c 128,-1,4
 422 519 422 519 389 492 c 0,5,6
 364 471 364 471 352.5 457 c 128,-1,7
 341 443 341 443 341 424 c 0,8,9
 341 401 341 401 358 383.5 c 128,-1,10
 375 366 375 366 412 341 c 0,11,12
 450 315 450 315 474.5 293.5 c 128,-1,13
 499 272 499 272 516.5 237.5 c 128,-1,14
 534 203 534 203 534 155 c 0,15,16
 534 81 534 81 488 35 c 128,-1,17
 442 -11 442 -11 371 -11 c 0,18,19
 317 -11 317 -11 275 12 c 1,20,-1
 293 53 l 1,21,22
 325 38 325 38 367 38 c 0,23,24
 416 38 416 38 445 69 c 128,-1,25
 474 100 474 100 474 156 c 0,26,27
 474 193 474 193 459.5 220.5 c 128,-1,28
 445 248 445 248 425 266 c 128,-1,29
 405 284 405 284 371 308 c 0,30,31
 328 337 328 337 307 361 c 128,-1,32
 286 385 286 385 286 421 c 0,33,34
 286 450 286 450 300 468.5 c 128,-1,35
 314 487 314 487 342 509 c 0,36,37
 372 534 372 534 386.5 553.5 c 128,-1,38
 401 573 401 573 401 606 c 0,39,40
 401 648 401 648 371 672 c 128,-1,41
 341 696 341 696 293 696 c 0,42,43
 234 696 234 696 199 656.5 c 128,-1,44
 164 617 164 617 164 538 c 2,45,-1
 164 0 l 1,46,-1
 106 0 l 1,47,-1
 106 540 l 2,48,49
 106 637 106 637 157 690 c 128,-1,50
 208 743 208 743 294 743 c 0,51,0
 367 743 367 743 412.5 705 c 128,-1,1
EndSplineSet
EndChar

StartChar: t
Encoding: 116 116 102
Width: 341
GlyphClass: 2
Flags: W
LayerCount: 2
Fore
SplineSet
344 22 m 1,0,1
 294 -11 294 -11 234 -11 c 256,2,3
 174 -11 174 -11 140 24.5 c 128,-1,4
 106 60 106 60 106 127 c 2,5,-1
 106 476 l 1,6,-1
 18 476 l 1,7,-1
 18 523 l 1,8,-1
 106 523 l 1,9,-1
 106 648 l 1,10,-1
 164 655 l 1,11,-1
 164 523 l 1,12,-1
 299 523 l 1,13,-1
 292 476 l 1,14,-1
 164 476 l 1,15,-1
 164 130 l 2,16,17
 164 84 164 84 183 61.5 c 128,-1,18
 202 39 202 39 241 39 c 0,19,20
 281 39 281 39 321 62 c 1,21,-1
 344 22 l 1,0,1
EndSplineSet
EndChar

StartChar: u
Encoding: 117 117 103
Width: 579
GlyphClass: 2
Flags: W
LayerCount: 2
Fore
SplineSet
473 0 m 1,0,-1
 423 0 l 1,1,-1
 420 93 l 1,2,3
 358 -11 358 -11 249 -11 c 0,4,5
 178 -11 178 -11 139.5 30.5 c 128,-1,6
 101 72 101 72 101 149 c 2,7,-1
 101 523 l 1,8,-1
 159 523 l 1,9,-1
 159 155 l 2,10,11
 159 94 159 94 184.5 65.5 c 128,-1,12
 210 37 210 37 262 37 c 0,13,14
 353 37 353 37 415 144 c 1,15,-1
 415 523 l 1,16,-1
 473 523 l 1,17,-1
 473 0 l 1,0,-1
EndSplineSet
EndChar

StartChar: uacute
Encoding: 250 250 104
Width: 579
GlyphClass: 2
Flags: W
LayerCount: 2
Fore
SplineSet
362 782 m 1
 388 730 l 1
 193 645 l 1
 174 679 l 1
 362 782 l 1
EndSplineSet
Refer: 103 117 N 1 0 0 1 0 0 0
EndChar

StartChar: ucircumflex
Encoding: 251 251 105
Width: 579
GlyphClass: 2
Flags: W
LayerCount: 2
Fore
SplineSet
165 643 m 1
 139 674 l 1
 268 779 l 1
 304 779 l 1
 434 674 l 1
 408 643 l 1
 286 728 l 1
 165 643 l 1
EndSplineSet
Refer: 103 117 N 1 0 0 1 0 0 0
EndChar

StartChar: udieresis
Encoding: 252 252 106
Width: 579
GlyphClass: 2
Flags: W
LayerCount: 2
Fore
SplineSet
220.5 730.5 m 0
 232 719 232 719 232 702 c 256
 232 685 232 685 220.5 674 c 0
 209 663 209 663 192 663 c 256
 175 663 175 663 163.5 674 c 0
 152 685 152 685 152 702 c 256
 152 719 152 719 163.5 730.5 c 0
 175 742 175 742 192 742 c 256
 209 742 209 742 220.5 730.5 c 0
409.5 730.5 m 0
 421 719 421 719 421 702 c 256
 421 685 421 685 409.5 674 c 0
 398 663 398 663 381 663 c 256
 364 663 364 663 352.5 674 c 0
 341 685 341 685 341 702 c 256
 341 719 341 719 352.5 730.5 c 0
 364 742 364 742 381 742 c 256
 398 742 398 742 409.5 730.5 c 0
EndSplineSet
Refer: 103 117 N 1 0 0 1 0 0 0
EndChar

StartChar: ugrave
Encoding: 249 249 107
Width: 579
GlyphClass: 2
Flags: W
LayerCount: 2
Fore
SplineSet
210 782 m 1
 398 679 l 1
 380 645 l 1
 184 730 l 1
 210 782 l 1
EndSplineSet
Refer: 103 117 N 1 0 0 1 0 0 0
EndChar

StartChar: v
Encoding: 118 118 108
Width: 470
GlyphClass: 2
Flags: W
LayerCount: 2
Fore
SplineSet
455 523 m 1,0,-1
 274 0 l 1,1,-1
 202 0 l 1,2,-1
 15 523 l 1,3,-1
 79 523 l 1,4,-1
 238 51 l 1,5,-1
 393 523 l 1,6,-1
 455 523 l 1,0,-1
EndSplineSet
EndChar

StartChar: w
Encoding: 119 119 109
Width: 698
GlyphClass: 2
Flags: W
LayerCount: 2
Fore
SplineSet
673 523 m 1,0,-1
 545 0 l 1,1,-1
 467 0 l 1,2,-1
 351 469 l 1,3,-1
 233 0 l 1,4,-1
 156 0 l 1,5,-1
 25 523 l 1,6,-1
 85 523 l 1,7,-1
 197 45 l 1,8,-1
 319 523 l 1,9,-1
 385 523 l 1,10,-1
 505 44 l 1,11,-1
 616 523 l 1,12,-1
 673 523 l 1,0,-1
EndSplineSet
EndChar

StartChar: x
Encoding: 120 120 110
Width: 459
GlyphClass: 2
Flags: W
LayerCount: 2
Fore
SplineSet
264 280 m 1,0,-1
 448 0 l 1,1,-1
 378 0 l 1,2,-1
 227 243 l 1,3,-1
 77 0 l 1,4,-1
 10 0 l 1,5,-1
 194 278 l 1,6,-1
 34 523 l 1,7,-1
 102 523 l 1,8,-1
 230 314 l 1,9,-1
 359 523 l 1,10,-1
 425 523 l 1,11,-1
 264 280 l 1,0,-1
EndSplineSet
EndChar

StartChar: y
Encoding: 121 121 111
Width: 468
GlyphClass: 2
Flags: W
LayerCount: 2
Fore
SplineSet
273 -2 m 2,0,1
 252 -63 252 -63 227 -102 c 128,-1,2
 202 -141 202 -141 162 -166.5 c 128,-1,3
 122 -192 122 -192 59 -204 c 1,4,-1
 53 -159 l 1,5,6
 105 -146 105 -146 134.5 -127 c 128,-1,7
 164 -108 164 -108 181.5 -79.5 c 128,-1,8
 199 -51 199 -51 217 0 c 1,9,-1
 197 0 l 1,10,-1
 15 523 l 1,11,-1
 78 523 l 1,12,-1
 236 43 l 1,13,-1
 391 523 l 1,14,-1
 452 523 l 1,15,-1
 273 -2 l 2,0,1
EndSplineSet
EndChar

StartChar: yacute
Encoding: 253 253 112
Width: 468
GlyphClass: 2
Flags: W
LayerCount: 2
Fore
SplineSet
309 782 m 1
 335 730 l 1
 140 645 l 1
 121 679 l 1
 309 782 l 1
EndSplineSet
Refer: 111 121 N 1 0 0 1 0 0 0
EndChar

StartChar: ydieresis
Encoding: 255 255 113
Width: 468
GlyphClass: 2
Flags: W
LayerCount: 2
Fore
SplineSet
167.5 730.5 m 0
 179 719 179 719 179 702 c 256
 179 685 179 685 167.5 674 c 0
 156 663 156 663 139 663 c 256
 122 663 122 663 110.5 674 c 0
 99 685 99 685 99 702 c 256
 99 719 99 719 110.5 730.5 c 0
 122 742 122 742 139 742 c 256
 156 742 156 742 167.5 730.5 c 0
356.5 730.5 m 0
 368 719 368 719 368 702 c 256
 368 685 368 685 356.5 674 c 0
 345 663 345 663 328 663 c 256
 311 663 311 663 299.5 674 c 0
 288 685 288 685 288 702 c 256
 288 719 288 719 299.5 730.5 c 0
 311 742 311 742 328 742 c 256
 345 742 345 742 356.5 730.5 c 0
EndSplineSet
Refer: 111 121 N 1 0 0 1 0 0 0
EndChar

StartChar: z
Encoding: 122 122 114
Width: 422
GlyphClass: 2
Flags: W
LayerCount: 2
Fore
SplineSet
388 523 m 1,0,-1
 388 478 l 1,1,-1
 96 50 l 1,2,-1
 386 50 l 1,3,-1
 380 0 l 1,4,-1
 28 0 l 1,5,-1
 28 45 l 1,6,-1
 320 473 l 1,7,-1
 52 473 l 1,8,-1
 52 523 l 1,9,-1
 388 523 l 1,0,-1
EndSplineSet
EndChar

StartChar: ordfeminine
Encoding: 170 170 115
Width: 500
GlyphClass: 2
Flags: W
LayerCount: 2
Fore
SplineSet
331 521 m 1,0,-1
 331 555 l 2,1,2
 331 600 331 600 309.5 619.5 c 128,-1,3
 288 639 288 639 238 639 c 0,4,5
 189 639 189 639 125 617 c 1,6,-1
 110 659 l 1,7,8
 182 685 182 685 244 685 c 0,9,10
 318 685 318 685 353 653.5 c 128,-1,11
 388 622 388 622 388 559 c 2,12,-1
 388 375 l 2,13,14
 388 345 388 345 396 332.5 c 128,-1,15
 404 320 404 320 421 313 c 1,16,-1
 409 274 l 1,17,18
 379 279 379 279 362.5 294 c 128,-1,19
 346 309 346 309 340 337 c 1,20,21
 295 274 295 274 210 274 c 0,22,23
 149 274 149 274 114 306 c 128,-1,24
 79 338 79 338 79 392 c 0,25,26
 79 454 79 454 126 487.5 c 128,-1,27
 173 521 173 521 255 521 c 2,28,-1
 331 521 l 1,0,-1
331 385 m 1,30,-1
 331 481 l 1,31,-1
 263 481 l 2,32,33
 139 481 139 481 139 395 c 0,34,35
 139 358 139 358 160.5 338.5 c 128,-1,36
 182 319 182 319 221 319 c 0,37,29
 293 319 293 319 331 385 c 1,30,-1
80 51 m 1,38,-1
 435 51 l 1,39,-1
 435 0 l 1,40,-1
 80 0 l 1,41,-1
 80 51 l 1,38,-1
EndSplineSet
EndChar

StartChar: ordmasculine
Encoding: 186 186 116
Width: 500
GlyphClass: 2
Flags: W
LayerCount: 2
Fore
SplineSet
382 631.5 m 128,-1,1
 430 578 430 578 430 481 c 0,2,3
 430 385 430 385 381.5 329.5 c 128,-1,4
 333 274 333 274 248 274 c 0,5,6
 164 274 164 274 116 328.5 c 128,-1,7
 68 383 68 383 68 479 c 0,8,9
 68 574 68 574 116.5 629.5 c 128,-1,10
 165 685 165 685 249 685 c 0,11,0
 334 685 334 685 382 631.5 c 128,-1,1
160 598.5 m 128,-1,13
 128 558 128 558 128 479 c 0,14,15
 128 401 128 401 159.5 360.5 c 128,-1,16
 191 320 191 320 249 320 c 256,17,18
 307 320 307 320 338.5 360.5 c 128,-1,19
 370 401 370 401 370 481 c 0,20,21
 370 560 370 560 339 599.5 c 128,-1,22
 308 639 308 639 250 639 c 256,23,12
 192 639 192 639 160 598.5 c 128,-1,13
71 0 m 1,24,-1
 71 51 l 1,25,-1
 426 51 l 1,26,-1
 426 0 l 1,27,-1
 71 0 l 1,24,-1
EndSplineSet
EndChar

StartChar: zero
Encoding: 48 48 117
Width: 550
Flags: W
LayerCount: 2
Fore
SplineSet
431 588.5 m 128,-1,1
 484 501 484 501 484 332 c 0,2,3
 484 164 484 164 430.5 76.5 c 128,-1,4
 377 -11 377 -11 275 -11 c 0,5,6
 172 -11 172 -11 119 76.5 c 128,-1,7
 66 164 66 164 66 333 c 256,8,9
 66 502 66 502 119 589 c 128,-1,10
 172 676 172 676 275 676 c 256,11,0
 378 676 378 676 431 588.5 c 128,-1,1
126 333 m 0,13,14
 126 37 126 37 275 37 c 0,15,16
 348 37 348 37 385.5 109 c 128,-1,17
 423 181 423 181 423 332 c 256,18,19
 423 483 423 483 385.5 555.5 c 128,-1,20
 348 628 348 628 275 628 c 0,21,12
 126 628 126 628 126 333 c 0,13,14
EndSplineSet
Substitution2: "'frac' Diagonal Fractions lookup 11 subtable" zero.numr
Substitution2: "'dnom' Denominators lookup 9 subtable" zero.dnom
Substitution2: "'numr' Numerators lookup 8 subtable" zero.numr
EndChar

StartChar: one
Encoding: 49 49 118
Width: 413
Flags: W
LayerCount: 2
Fore
SplineSet
292 665 m 1,0,-1
 292 0 l 1,1,-1
 234 0 l 1,2,-1
 234 601 l 1,3,-1
 70 499 l 1,4,-1
 43 542 l 1,5,-1
 242 665 l 1,6,-1
 292 665 l 1,0,-1
EndSplineSet
Substitution2: "'frac' Diagonal Fractions lookup 11 subtable" one.numr
Substitution2: "'dnom' Denominators lookup 9 subtable" one.dnom
Substitution2: "'numr' Numerators lookup 8 subtable" one.numr
EndChar

StartChar: two
Encoding: 50 50 119
Width: 479
Flags: W
LayerCount: 2
Fore
SplineSet
358.5 627 m 128,-1,1
 408 578 408 578 408 501 c 0,2,3
 408 436 408 436 381 379 c 128,-1,4
 354 322 354 322 296.5 254 c 128,-1,5
 239 186 239 186 111 51 c 1,6,-1
 426 51 l 1,7,-1
 418 0 l 1,8,-1
 43 0 l 1,9,-1
 43 49 l 1,10,11
 180 195 180 195 239.5 265.5 c 128,-1,12
 299 336 299 336 323.5 387.5 c 128,-1,13
 348 439 348 439 348 498 c 256,14,15
 348 557 348 557 313.5 592 c 128,-1,16
 279 627 279 627 222 627 c 0,17,18
 176 627 176 627 140.5 608 c 128,-1,19
 105 589 105 589 73 551 c 1,20,-1
 33 581 l 1,21,22
 73 630 73 630 119.5 653 c 128,-1,23
 166 676 166 676 225 676 c 0,24,0
 309 676 309 676 358.5 627 c 128,-1,1
EndSplineSet
Substitution2: "'frac' Diagonal Fractions lookup 11 subtable" two.numr
Substitution2: "'dnom' Denominators lookup 9 subtable" two.dnom
Substitution2: "'numr' Numerators lookup 8 subtable" two.numr
EndChar

StartChar: three
Encoding: 51 51 120
Width: 486
Flags: W
LayerCount: 2
Fore
SplineSet
318.5 654 m 128,-1,1
 360 632 360 632 382 594.5 c 128,-1,2
 404 557 404 557 404 510 c 0,3,4
 404 445 404 445 367.5 404.5 c 128,-1,5
 331 364 331 364 273 354 c 1,6,7
 338 351 338 351 380.5 307.5 c 128,-1,8
 423 264 423 264 423 188 c 0,9,10
 423 130 423 130 397 85 c 128,-1,11
 371 40 371 40 322.5 14.5 c 128,-1,12
 274 -11 274 -11 211 -11 c 0,13,14
 95 -11 95 -11 20 75 c 1,15,-1
 57 108 l 1,16,17
 91 71 91 71 127.5 54.5 c 128,-1,18
 164 38 164 38 209 38 c 0,19,20
 281 38 281 38 322 79 c 128,-1,21
 363 120 363 120 363 187 c 0,22,23
 363 327 363 327 213 327 c 2,24,-1
 169 327 l 1,25,-1
 177 374 l 1,26,-1
 209 374 l 2,27,28
 266 374 266 374 306 408.5 c 128,-1,29
 346 443 346 443 346 507 c 0,30,31
 346 562 346 562 311 594.5 c 128,-1,32
 276 627 276 627 218 627 c 0,33,34
 176 627 176 627 141 612.5 c 128,-1,35
 106 598 106 598 70 565 c 1,36,-1
 39 601 l 1,37,38
 79 639 79 639 123 657.5 c 128,-1,39
 167 676 167 676 221 676 c 0,40,0
 277 676 277 676 318.5 654 c 128,-1,1
EndSplineSet
Substitution2: "'frac' Diagonal Fractions lookup 11 subtable" three.numr
Substitution2: "'dnom' Denominators lookup 9 subtable" three.dnom
Substitution2: "'numr' Numerators lookup 8 subtable" three.numr
EndChar

StartChar: four
Encoding: 52 52 121
Width: 518
Flags: W
LayerCount: 2
Fore
SplineSet
483 223 m 1,0,-1
 483 175 l 1,1,-1
 393 175 l 1,2,-1
 393 0 l 1,3,-1
 336 0 l 1,4,-1
 336 175 l 1,5,-1
 45 175 l 1,6,-1
 45 218 l 1,7,-1
 248 676 l 1,8,-1
 297 656 l 1,9,-1
 107 223 l 1,10,-1
 336 223 l 1,11,-1
 343 418 l 1,12,-1
 393 418 l 1,13,-1
 393 223 l 1,14,-1
 483 223 l 1,0,-1
EndSplineSet
Substitution2: "'frac' Diagonal Fractions lookup 11 subtable" four.numr
Substitution2: "'dnom' Denominators lookup 9 subtable" four.dnom
Substitution2: "'numr' Numerators lookup 8 subtable" four.numr
EndChar

StartChar: five
Encoding: 53 53 122
Width: 487
Flags: W
LayerCount: 2
Fore
SplineSet
405 617 m 1,0,-1
 135 617 l 1,1,-1
 135 390 l 1,2,3
 190 421 190 421 249 421 c 0,4,5
 335 421 335 421 385.5 365.5 c 128,-1,6
 436 310 436 310 436 214 c 0,7,8
 436 149 436 149 409.5 97.5 c 128,-1,9
 383 46 383 46 334.5 17.5 c 128,-1,10
 286 -11 286 -11 222 -11 c 0,11,12
 111 -11 111 -11 34 69 c 1,13,-1
 70 104 l 1,14,15
 102 70 102 70 138 54 c 128,-1,16
 174 38 174 38 222 38 c 0,17,18
 293 38 293 38 334 85.5 c 128,-1,19
 375 133 375 133 375 215 c 0,20,21
 375 295 375 295 337.5 334.5 c 128,-1,22
 300 374 300 374 236 374 c 0,23,24
 204 374 204 374 179.5 366.5 c 128,-1,25
 155 359 155 359 125 342 c 1,26,-1
 79 342 l 1,27,-1
 79 665 l 1,28,-1
 414 665 l 1,29,-1
 405 617 l 1,0,-1
EndSplineSet
Substitution2: "'frac' Diagonal Fractions lookup 11 subtable" five.numr
Substitution2: "'dnom' Denominators lookup 9 subtable" five.dnom
Substitution2: "'numr' Numerators lookup 8 subtable" five.numr
EndChar

StartChar: six
Encoding: 54 54 123
Width: 524
Flags: W
LayerCount: 2
Fore
SplineSet
423 379.5 m 128,-1,1
 473 326 473 326 473 224 c 0,2,3
 473 153 473 153 447.5 99.5 c 128,-1,4
 422 46 422 46 377.5 17.5 c 128,-1,5
 333 -11 333 -11 277 -11 c 0,6,7
 167 -11 167 -11 116.5 73.5 c 128,-1,8
 66 158 66 158 66 300 c 0,9,10
 66 415 66 415 95 500 c 128,-1,11
 124 585 124 585 178 630.5 c 128,-1,12
 232 676 232 676 306 676 c 0,13,14
 373 676 373 676 430 637 c 1,15,-1
 405 597 l 1,16,17
 357 628 357 628 305 628 c 0,18,19
 224 628 224 628 176 547 c 128,-1,20
 128 466 128 466 125 335 c 1,21,22
 192 433 192 433 296 433 c 0,23,0
 373 433 373 433 423 379.5 c 128,-1,1
378.5 87.5 m 128,-1,25
 414 138 414 138 414 222 c 0,26,27
 414 305 414 305 379.5 345 c 128,-1,28
 345 385 345 385 288 385 c 0,29,30
 238 385 238 385 196.5 355.5 c 128,-1,31
 155 326 155 326 125 275 c 1,32,33
 128 159 128 159 164 98 c 128,-1,34
 200 37 200 37 277 37 c 0,35,24
 343 37 343 37 378.5 87.5 c 128,-1,25
EndSplineSet
Substitution2: "'frac' Diagonal Fractions lookup 11 subtable" six.numr
Substitution2: "'dnom' Denominators lookup 9 subtable" six.dnom
Substitution2: "'numr' Numerators lookup 8 subtable" six.numr
EndChar

StartChar: seven
Encoding: 55 55 124
Width: 437
Flags: W
LayerCount: 2
Fore
SplineSet
401 665 m 1,0,-1
 401 620 l 1,1,-1
 139 -8 l 1,2,-1
 85 10 l 1,3,-1
 341 616 l 1,4,-1
 30 616 l 1,5,-1
 30 665 l 1,6,-1
 401 665 l 1,0,-1
EndSplineSet
Substitution2: "'frac' Diagonal Fractions lookup 11 subtable" seven.numr
Substitution2: "'dnom' Denominators lookup 9 subtable" seven.dnom
Substitution2: "'numr' Numerators lookup 8 subtable" seven.numr
EndChar

StartChar: eight
Encoding: 56 56 125
Width: 538
Flags: W
LayerCount: 2
Fore
SplineSet
449.5 279.5 m 128,-1,1
 485 238 485 238 485 173 c 0,2,3
 485 118 485 118 457.5 76.5 c 128,-1,4
 430 35 430 35 380.5 12 c 128,-1,5
 331 -11 331 -11 267 -11 c 256,6,7
 203 -11 203 -11 154.5 12 c 128,-1,8
 106 35 106 35 79.5 76.5 c 128,-1,9
 53 118 53 118 53 172 c 0,10,11
 53 300 53 300 196 357 c 1,12,13
 137 384 137 384 109.5 419.5 c 128,-1,14
 82 455 82 455 82 510 c 0,15,16
 82 561 82 561 108 599 c 128,-1,17
 134 637 134 637 177 656.5 c 128,-1,18
 220 676 220 676 269 676 c 256,19,20
 318 676 318 676 361 657 c 128,-1,21
 404 638 404 638 430.5 601 c 128,-1,22
 457 564 457 564 457 511 c 0,23,24
 457 459 457 459 428 421.5 c 128,-1,25
 399 384 399 384 337 352 c 1,26,0
 414 321 414 321 449.5 279.5 c 128,-1,1
167.5 433 m 128,-1,28
 195 405 195 405 263 380 c 2,29,-1
 294 369 l 1,30,31
 350 399 350 399 374.5 431 c 128,-1,32
 399 463 399 463 399 509 c 0,33,34
 399 566 399 566 363.5 598 c 128,-1,35
 328 630 328 630 269 630 c 0,36,37
 212 630 212 630 176 598 c 128,-1,38
 140 566 140 566 140 509 c 0,39,27
 140 461 140 461 167.5 433 c 128,-1,28
381.5 73.5 m 128,-1,41
 424 109 424 109 424 173 c 0,42,43
 424 213 424 213 409 239.5 c 128,-1,44
 394 266 394 266 363 285.5 c 128,-1,45
 332 305 332 305 276 326 c 2,46,-1
 242 339 l 1,47,48
 175 313 175 313 144.5 272.5 c 128,-1,49
 114 232 114 232 114 172 c 0,50,51
 114 108 114 108 156 73 c 128,-1,52
 198 38 198 38 268 38 c 0,53,40
 339 38 339 38 381.5 73.5 c 128,-1,41
EndSplineSet
Substitution2: "'frac' Diagonal Fractions lookup 11 subtable" eight.numr
Substitution2: "'dnom' Denominators lookup 9 subtable" eight.dnom
Substitution2: "'numr' Numerators lookup 8 subtable" eight.numr
EndChar

StartChar: nine
Encoding: 57 57 126
Width: 518
Flags: W
LayerCount: 2
Fore
SplineSet
406.5 605.5 m 128,-1,1
 457 535 457 535 457 408 c 0,2,3
 457 279 457 279 420 197 c 128,-1,4
 383 115 383 115 311.5 66 c 128,-1,5
 240 17 240 17 123 -19 c 1,6,-1
 108 26 l 1,7,8
 246 68 246 68 318.5 141 c 128,-1,9
 391 214 391 214 398 341 c 1,10,11
 368 297 368 297 326 272.5 c 128,-1,12
 284 248 284 248 234 248 c 0,13,14
 182 248 182 248 141 273.5 c 128,-1,15
 100 299 100 299 76.5 346.5 c 128,-1,16
 53 394 53 394 53 458 c 0,17,18
 53 524 53 524 79.5 573.5 c 128,-1,19
 106 623 106 623 152 649.5 c 128,-1,20
 198 676 198 676 255 676 c 0,21,0
 356 676 356 676 406.5 605.5 c 128,-1,1
328.5 321.5 m 128,-1,23
 366 347 366 347 398 396 c 1,24,25
 399 515 399 515 365 571.5 c 128,-1,26
 331 628 331 628 257 628 c 0,27,28
 190 628 190 628 151.5 583.5 c 128,-1,29
 113 539 113 539 113 457 c 0,30,31
 113 380 113 380 148.5 338 c 128,-1,32
 184 296 184 296 244 296 c 0,33,22
 291 296 291 296 328.5 321.5 c 128,-1,23
EndSplineSet
Substitution2: "'frac' Diagonal Fractions lookup 11 subtable" nine.numr
Substitution2: "'dnom' Denominators lookup 9 subtable" nine.dnom
Substitution2: "'numr' Numerators lookup 8 subtable" nine.numr
EndChar

StartChar: uni00B9
Encoding: 185 185 127
Width: 400
Flags: W
LayerCount: 2
Fore
SplineSet
258 737 m 1
 258 323 l 1
 207 323 l 1
 207 682 l 1
 104 622 l 1
 81 658 l 1
 214 737 l 1
 258 737 l 1
EndSplineSet
EndChar

StartChar: uni00B2
Encoding: 178 178 128
Width: 400
Flags: W
LayerCount: 2
Fore
SplineSet
288 711 m 0
 322 679 322 679 322 630 c 0
 322 592 322 592 305 558.5 c 0
 288 525 288 525 251 484 c 0
 214 443 214 443 135 366 c 1
 334 366 l 1
 327 323 l 1
 75 323 l 1
 75 364 l 1
 161 450 161 450 199.5 492 c 0
 238 534 238 534 253.5 564 c 0
 269 594 269 594 269 626 c 0
 269 661 269 661 248.5 680.5 c 0
 228 700 228 700 193 700 c 0
 164 700 164 700 142.5 689 c 0
 121 678 121 678 101 655 c 1
 66 681 l 1
 93 713 93 713 125 728 c 0
 157 743 157 743 197 743 c 0
 254 743 254 743 288 711 c 0
EndSplineSet
EndChar

StartChar: uni00B3
Encoding: 179 179 129
Width: 400
Flags: W
LayerCount: 2
Fore
SplineSet
291 715 m 0
 325 686 325 686 325 640 c 0
 325 601 325 601 301.5 576 c 0
 278 551 278 551 239 543 c 1
 281 541 281 541 308.5 514 c 0
 336 487 336 487 336 440 c 0
 336 385 336 385 297 350 c 0
 258 315 258 315 192 315 c 0
 114 315 114 315 63 371 c 1
 94 399 l 1
 135 357 135 357 189 357 c 0
 234 357 234 357 258.5 380 c 0
 283 403 283 403 283 441 c 0
 283 521 283 521 192 521 c 2
 162 521 l 1
 169 560 l 1
 189 560 l 2
 224 560 224 560 248.5 579 c 0
 273 598 273 598 273 635 c 0
 273 667 273 667 252 685 c 0
 231 703 231 703 196 703 c 0
 169 703 169 703 147 694 c 0
 125 685 125 685 101 665 c 1
 74 696 l 1
 102 720 102 720 132 732 c 0
 162 744 162 744 199 744 c 0
 257 744 257 744 291 715 c 0
EndSplineSet
EndChar

StartChar: onehalf
Encoding: 189 189 130
Width: 914
Flags: W
LayerCount: 2
Fore
SplineSet
258 685 m 1
 258 271 l 1
 207 271 l 1
 207 630 l 1
 104 570 l 1
 81 606 l 1
 214 685 l 1
 258 685 l 1
802 388 m 0
 836 356 836 356 836 307 c 0
 836 269 836 269 819 235.5 c 0
 802 202 802 202 765 161 c 0
 728 120 728 120 649 43 c 1
 848 43 l 1
 841 0 l 1
 589 0 l 1
 589 41 l 1
 675 127 675 127 713.5 169 c 0
 752 211 752 211 767.5 241 c 0
 783 271 783 271 783 303 c 0
 783 338 783 338 762.5 357.5 c 0
 742 377 742 377 707 377 c 0
 678 377 678 377 656.5 366 c 0
 635 355 635 355 615 332 c 1
 580 358 l 1
 607 390 607 390 639 405 c 0
 671 420 671 420 711 420 c 0
 768 420 768 420 802 388 c 0
641 747 m 1
 681 728 l 1
 274 -71 l 1
 233 -51 l 1
 641 747 l 1
EndSplineSet
EndChar

StartChar: onequarter
Encoding: 188 188 131
Width: 914
Flags: W
LayerCount: 2
Fore
SplineSet
258 685 m 1
 258 271 l 1
 207 271 l 1
 207 630 l 1
 104 570 l 1
 81 606 l 1
 214 685 l 1
 258 685 l 1
861 145 m 1
 861 103 l 1
 805 103 l 1
 805 0 l 1
 755 0 l 1
 755 103 l 1
 566 103 l 1
 566 140 l 1
 696 421 l 1
 740 404 l 1
 620 145 l 1
 755 145 l 1
 760 260 l 1
 805 260 l 1
 805 145 l 1
 861 145 l 1
641 747 m 1
 681 728 l 1
 274 -71 l 1
 233 -51 l 1
 641 747 l 1
EndSplineSet
EndChar

StartChar: threequarters
Encoding: 190 190 132
Width: 914
Flags: W
LayerCount: 2
Fore
SplineSet
291 663 m 0
 325 634 325 634 325 588 c 0
 325 549 325 549 301.5 524 c 0
 278 499 278 499 239 491 c 1
 281 489 281 489 308.5 462 c 0
 336 435 336 435 336 388 c 0
 336 333 336 333 297 298 c 0
 258 263 258 263 192 263 c 0
 114 263 114 263 63 319 c 1
 94 347 l 1
 135 305 135 305 189 305 c 0
 234 305 234 305 258.5 328 c 0
 283 351 283 351 283 389 c 0
 283 469 283 469 192 469 c 2
 162 469 l 1
 169 508 l 1
 189 508 l 2
 224 508 224 508 248.5 527 c 0
 273 546 273 546 273 583 c 0
 273 615 273 615 252 633 c 0
 231 651 231 651 196 651 c 0
 169 651 169 651 147 642 c 0
 125 633 125 633 101 613 c 1
 74 644 l 1
 102 668 102 668 132 680 c 0
 162 692 162 692 199 692 c 0
 257 692 257 692 291 663 c 0
861 145 m 1
 861 103 l 1
 805 103 l 1
 805 0 l 1
 755 0 l 1
 755 103 l 1
 566 103 l 1
 566 140 l 1
 696 421 l 1
 740 404 l 1
 620 145 l 1
 755 145 l 1
 760 260 l 1
 805 260 l 1
 805 145 l 1
 861 145 l 1
641 747 m 1
 681 728 l 1
 274 -71 l 1
 233 -51 l 1
 641 747 l 1
EndSplineSet
EndChar

StartChar: asterisk
Encoding: 42 42 133
Width: 436
Flags: W
LayerCount: 2
Fore
SplineSet
402 582 m 1,0,-1
 250 542 l 1,1,-1
 349 420 l 1,2,-1
 303 386 l 1,3,-1
 218 518 l 1,4,-1
 133 386 l 1,5,-1
 87 419 l 1,6,-1
 186 541 l 1,7,-1
 34 582 l 1,8,-1
 51 634 l 1,9,-1
 198 577 l 1,10,-1
 189 736 l 1,11,-1
 246 736 l 1,12,-1
 238 577 l 1,13,-1
 384 634 l 1,14,-1
 402 582 l 1,0,-1
EndSplineSet
EndChar

StartChar: backslash
Encoding: 92 92 134
Width: 520
Flags: W
LayerCount: 2
Fore
SplineSet
169 803 m 1,0,-1
 401 -87 l 1,1,-1
 350 -100 l 1,2,-1
 119 791 l 1,3,-1
 169 803 l 1,0,-1
EndSplineSet
EndChar

StartChar: periodcentered
Encoding: 183 183 135
Width: 207
Flags: W
LayerCount: 2
Fore
SplineSet
137.5 352.5 m 128,-1,1
 151 339 151 339 151 319 c 0,2,3
 151 298 151 298 137.5 284.5 c 128,-1,4
 124 271 124 271 103 271 c 0,5,6
 83 271 83 271 69 285 c 128,-1,7
 55 299 55 299 55 319 c 256,8,9
 55 339 55 339 69 352.5 c 128,-1,10
 83 366 83 366 103 366 c 0,11,0
 124 366 124 366 137.5 352.5 c 128,-1,1
EndSplineSet
EndChar

StartChar: comma
Encoding: 44 44 137
Width: 207
Flags: W
LayerCount: 2
Fore
SplineSet
137.5 70.5 m 128,-1,1
 151 57 151 57 151 37 c 0,2,3
 151 15 151 15 136 -18 c 2,4,-1
 80 -151 l 1,5,-1
 38 -151 l 1,6,-1
 78 -4 l 1,7,8
 67 2 67 2 61 13 c 128,-1,9
 55 24 55 24 55 37 c 0,10,11
 55 57 55 57 69 70.5 c 128,-1,12
 83 84 83 84 103 84 c 0,13,0
 124 84 124 84 137.5 70.5 c 128,-1,1
EndSplineSet
EndChar

StartChar: exclam
Encoding: 33 33 138
Width: 240
Flags: W
LayerCount: 2
Fore
SplineSet
150 685 m 1,0,-1
 146 218 l 1,1,-1
 93 218 l 1,2,-1
 88 685 l 1,3,-1
 150 685 l 1,0,-1
154.5 70.5 m 128,-1,5
 168 57 168 57 168 37 c 256,6,7
 168 17 168 17 154.5 3 c 128,-1,8
 141 -11 141 -11 120 -11 c 0,9,10
 100 -11 100 -11 86 3 c 128,-1,11
 72 17 72 17 72 37 c 256,12,13
 72 57 72 57 86 70.5 c 128,-1,14
 100 84 100 84 120 84 c 0,15,4
 141 84 141 84 154.5 70.5 c 128,-1,5
EndSplineSet
EndChar

StartChar: exclamdown
Encoding: 161 161 139
Width: 240
Flags: W
LayerCount: 2
Fore
SplineSet
154.5 461 m 128,-1,1
 168 447 168 447 168 427 c 256,2,3
 168 407 168 407 154.5 393.5 c 128,-1,4
 141 380 141 380 120 380 c 256,5,6
 99 380 99 380 85.5 393.5 c 128,-1,7
 72 407 72 407 72 427 c 256,8,9
 72 447 72 447 85.5 461 c 128,-1,10
 99 475 99 475 120 475 c 256,11,0
 141 475 141 475 154.5 461 c 128,-1,1
147 249 m 1,12,-1
 152 -197 l 1,13,-1
 90 -197 l 1,14,-1
 95 249 l 1,15,-1
 147 249 l 1,12,-1
EndSplineSet
EndChar

StartChar: numbersign
Encoding: 35 35 140
Width: 503
Flags: W
LayerCount: 2
Fore
SplineSet
488 452 m 1,0,-1
 410 452 l 1,1,-1
 380 226 l 1,2,-1
 451 226 l 1,3,-1
 451 180 l 1,4,-1
 374 180 l 1,5,-1
 350 0 l 1,6,-1
 298 0 l 1,7,-1
 322 180 l 1,8,-1
 139 180 l 1,9,-1
 115 0 l 1,10,-1
 63 0 l 1,11,-1
 87 180 l 1,12,-1
 15 180 l 1,13,-1
 15 226 l 1,14,-1
 93 226 l 1,15,-1
 123 452 l 1,16,-1
 52 452 l 1,17,-1
 52 499 l 1,18,-1
 129 499 l 1,19,-1
 151 665 l 1,20,-1
 203 665 l 1,21,-1
 181 499 l 1,22,-1
 364 499 l 1,23,-1
 386 665 l 1,24,-1
 438 665 l 1,25,-1
 416 499 l 1,26,-1
 488 499 l 1,27,-1
 488 452 l 1,0,-1
328 226 m 1,28,-1
 358 452 l 1,29,-1
 175 452 l 1,30,-1
 145 226 l 1,31,-1
 328 226 l 1,28,-1
EndSplineSet
EndChar

StartChar: period
Encoding: 46 46 141
Width: 207
Flags: W
LayerCount: 2
Fore
SplineSet
137.5 70.5 m 128,-1,1
 151 57 151 57 151 37 c 0,2,3
 151 16 151 16 137.5 2.5 c 128,-1,4
 124 -11 124 -11 103 -11 c 0,5,6
 83 -11 83 -11 69 3 c 128,-1,7
 55 17 55 17 55 37 c 256,8,9
 55 57 55 57 69 70.5 c 128,-1,10
 83 84 83 84 103 84 c 0,11,0
 124 84 124 84 137.5 70.5 c 128,-1,1
EndSplineSet
EndChar

StartChar: question
Encoding: 63 63 142
Width: 447
Flags: W
LayerCount: 2
Fore
SplineSet
327 676 m 128,-1,1
 366 656 366 656 386.5 623 c 128,-1,2
 407 590 407 590 407 550 c 0,3,4
 407 514 407 514 394 488 c 128,-1,5
 381 462 381 462 362.5 445 c 128,-1,6
 344 428 344 428 313 407 c 0,7,8
 283 386 283 386 265.5 370 c 128,-1,9
 248 354 248 354 236 330 c 128,-1,10
 224 306 224 306 224 273 c 2,11,-1
 224 218 l 1,12,-1
 167 218 l 1,13,-1
 167 277 l 2,14,15
 167 319 167 319 181 348.5 c 128,-1,16
 195 378 195 378 215 396.5 c 128,-1,17
 235 415 235 415 267 437 c 0,18,19
 307 464 307 464 326.5 487 c 128,-1,20
 346 510 346 510 346 547 c 0,21,22
 346 593 346 593 315 619.5 c 128,-1,23
 284 646 284 646 231 646 c 0,24,25
 186 646 186 646 150.5 628.5 c 128,-1,26
 115 611 115 611 81 572 c 1,27,-1
 41 604 l 1,28,29
 82 651 82 651 128.5 673.5 c 128,-1,30
 175 696 175 696 234 696 c 0,31,0
 288 696 288 696 327 676 c 128,-1,1
232.5 70.5 m 128,-1,33
 246 57 246 57 246 37 c 256,34,35
 246 17 246 17 232.5 3 c 128,-1,36
 219 -11 219 -11 198 -11 c 256,37,38
 177 -11 177 -11 163.5 3 c 128,-1,39
 150 17 150 17 150 37 c 256,40,41
 150 57 150 57 163.5 70.5 c 128,-1,42
 177 84 177 84 198 84 c 256,43,32
 219 84 219 84 232.5 70.5 c 128,-1,33
EndSplineSet
EndChar

StartChar: questiondown
Encoding: 191 191 143
Width: 447
Flags: W
LayerCount: 2
Fore
SplineSet
215.5 393.5 m 128,-1,1
 202 407 202 407 202 427 c 0,2,3
 202 448 202 448 215.5 461.5 c 128,-1,4
 229 475 229 475 250 475 c 0,5,6
 270 475 270 475 283.5 461 c 128,-1,7
 297 447 297 447 297 427 c 256,8,9
 297 407 297 407 283.5 393.5 c 128,-1,10
 270 380 270 380 250 380 c 0,11,0
 229 380 229 380 215.5 393.5 c 128,-1,1
121 -186 m 128,-1,13
 82 -166 82 -166 61.5 -133.5 c 128,-1,14
 41 -101 41 -101 41 -64 c 256,15,16
 41 -27 41 -27 54 -0.5 c 128,-1,17
 67 26 67 26 86.5 43 c 128,-1,18
 106 60 106 60 137 81 c 0,19,20
 180 111 180 111 201.5 136 c 128,-1,21
 223 161 223 161 223 204 c 2,22,-1
 223 249 l 1,23,-1
 280 249 l 1,24,-1
 280 200 l 2,25,26
 280 161 280 161 266.5 133.5 c 128,-1,27
 253 106 253 106 233.5 88.5 c 128,-1,28
 214 71 214 71 183 50 c 0,29,30
 142 23 142 23 122 -0.5 c 128,-1,31
 102 -24 102 -24 102 -62 c 0,32,33
 102 -104 102 -104 133 -130.5 c 128,-1,34
 164 -157 164 -157 216 -157 c 0,35,36
 260 -157 260 -157 296 -139 c 128,-1,37
 332 -121 332 -121 366 -82 c 1,38,-1
 407 -114 l 1,39,40
 365 -161 365 -161 318.5 -183.5 c 128,-1,41
 272 -206 272 -206 213 -206 c 0,42,12
 160 -206 160 -206 121 -186 c 128,-1,13
EndSplineSet
EndChar

StartChar: quotesingle
Encoding: 39 39 145
Width: 204
Flags: W
LayerCount: 2
Fore
SplineSet
80 434 m 1,0,-1
 71 685 l 1,1,-1
 133 685 l 1,2,-1
 124 434 l 1,3,-1
 80 434 l 1,0,-1
EndSplineSet
EndChar

StartChar: slash
Encoding: 47 47 147
Width: 520
Flags: W
LayerCount: 2
Fore
SplineSet
351 803 m 1,0,-1
 401 790 l 1,1,-1
 169 -100 l 1,2,-1
 119 -87 l 1,3,-1
 351 803 l 1,0,-1
EndSplineSet
Substitution2: "'frac' Diagonal Fractions lookup 10 subtable" fraction
EndChar

StartChar: underscore
Encoding: 95 95 148
Width: 520
Flags: W
LayerCount: 2
Fore
SplineSet
29 -122 m 1,0,-1
 29 -71 l 1,1,-1
 492 -71 l 1,2,-1
 492 -122 l 1,3,-1
 29 -122 l 1,0,-1
EndSplineSet
EndChar

StartChar: braceleft
Encoding: 123 123 149
Width: 326
Flags: W
LayerCount: 2
Fore
SplineSet
262 783 m 1,0,1
 215 783 215 783 195 764.5 c 128,-1,2
 175 746 175 746 175 705 c 2,3,-1
 175 451 l 2,4,5
 175 402 175 402 157 381 c 128,-1,6
 139 360 139 360 99 349 c 1,7,8
 140 338 140 338 157.5 317.5 c 128,-1,9
 175 297 175 297 175 247 c 2,10,-1
 175 -6 l 2,11,12
 175 -47 175 -47 195 -65.5 c 128,-1,13
 215 -84 215 -84 262 -84 c 1,14,-1
 262 -129 l 1,15,16
 188 -129 188 -129 154 -99.5 c 128,-1,17
 120 -70 120 -70 120 -4 c 2,18,-1
 120 251 l 2,19,20
 120 290 120 290 101.5 307 c 128,-1,21
 83 324 83 324 44 324 c 1,22,-1
 44 374 l 1,23,24
 83 374 83 374 101.5 391 c 128,-1,25
 120 408 120 408 120 448 c 2,26,-1
 120 703 l 2,27,28
 120 769 120 769 154 798.5 c 128,-1,29
 188 828 188 828 262 828 c 1,30,-1
 262 783 l 1,0,1
EndSplineSet
EndChar

StartChar: braceright
Encoding: 125 125 150
Width: 326
Flags: W
LayerCount: 2
Fore
SplineSet
171.5 798.5 m 128,-1,1
 206 769 206 769 206 703 c 2,2,-1
 206 448 l 2,3,4
 206 408 206 408 224.5 391 c 128,-1,5
 243 374 243 374 282 374 c 1,6,-1
 282 324 l 1,7,8
 243 324 243 324 224.5 307 c 128,-1,9
 206 290 206 290 206 251 c 2,10,-1
 206 -4 l 2,11,12
 206 -70 206 -70 171.5 -99.5 c 128,-1,13
 137 -129 137 -129 64 -129 c 1,14,-1
 64 -84 l 1,15,16
 111 -84 111 -84 131 -65.5 c 128,-1,17
 151 -47 151 -47 151 -6 c 2,18,-1
 151 247 l 2,19,20
 151 297 151 297 168.5 317.5 c 128,-1,21
 186 338 186 338 227 349 c 1,22,23
 187 360 187 360 169 381 c 128,-1,24
 151 402 151 402 151 451 c 2,25,-1
 151 705 l 2,26,27
 151 746 151 746 131 764.5 c 128,-1,28
 111 783 111 783 64 783 c 1,29,-1
 64 828 l 1,30,0
 137 828 137 828 171.5 798.5 c 128,-1,1
EndSplineSet
EndChar

StartChar: bracketleft
Encoding: 91 91 151
Width: 317
Flags: W
LayerCount: 2
Fore
SplineSet
251 807 m 1,0,-1
 251 758 l 1,1,-1
 139 758 l 1,2,-1
 139 -64 l 1,3,-1
 251 -64 l 1,4,-1
 251 -112 l 1,5,-1
 84 -112 l 1,6,-1
 84 807 l 1,7,-1
 251 807 l 1,0,-1
EndSplineSet
EndChar

StartChar: bracketright
Encoding: 93 93 152
Width: 317
Flags: W
LayerCount: 2
Fore
SplineSet
233 807 m 1,0,-1
 233 -112 l 1,1,-1
 66 -112 l 1,2,-1
 66 -64 l 1,3,-1
 178 -64 l 1,4,-1
 178 758 l 1,5,-1
 66 758 l 1,6,-1
 66 807 l 1,7,-1
 233 807 l 1,0,-1
EndSplineSet
EndChar

StartChar: parenleft
Encoding: 40 40 153
Width: 324
Flags: W
LayerCount: 2
Fore
SplineSet
270 813 m 1,0,1
 217 734 217 734 185 672.5 c 128,-1,2
 153 611 153 611 133.5 532 c 128,-1,3
 114 453 114 453 114 350 c 256,4,5
 114 247 114 247 133.5 168 c 128,-1,6
 153 89 153 89 185 27.5 c 128,-1,7
 217 -34 217 -34 270 -113 c 1,8,-1
 233 -137 l 1,9,10
 171 -50 171 -50 135.5 12 c 128,-1,11
 100 74 100 74 77 157 c 128,-1,12
 54 240 54 240 54 350 c 256,13,14
 54 460 54 460 77 543 c 128,-1,15
 100 626 100 626 135.5 688 c 128,-1,16
 171 750 171 750 233 837 c 1,17,-1
 270 813 l 1,0,1
EndSplineSet
Substitution2: "'dnom' Denominators lookup 9 subtable" parenleft.dnom
Substitution2: "'numr' Numerators lookup 8 subtable" parenleft.numr
EndChar

StartChar: parenright
Encoding: 41 41 154
Width: 324
Flags: W
LayerCount: 2
Fore
SplineSet
188.5 688 m 128,-1,1
 224 626 224 626 247 543 c 128,-1,2
 270 460 270 460 270 350 c 256,3,4
 270 240 270 240 247 157 c 128,-1,5
 224 74 224 74 188.5 12 c 128,-1,6
 153 -50 153 -50 91 -137 c 1,7,-1
 54 -113 l 1,8,9
 107 -34 107 -34 139 27.5 c 128,-1,10
 171 89 171 89 190.5 168 c 128,-1,11
 210 247 210 247 210 350 c 256,12,13
 210 453 210 453 190.5 532 c 128,-1,14
 171 611 171 611 139 672.5 c 128,-1,15
 107 734 107 734 54 813 c 1,16,-1
 91 837 l 1,17,0
 153 750 153 750 188.5 688 c 128,-1,1
EndSplineSet
Substitution2: "'dnom' Denominators lookup 9 subtable" parenright.dnom
Substitution2: "'numr' Numerators lookup 8 subtable" parenright.numr
EndChar

StartChar: hyphen
Encoding: 45 45 155
Width: 401
Flags: W
LayerCount: 2
Fore
SplineSet
68 288 m 1,0,-1
 68 338 l 1,1,-1
 333 338 l 1,2,-1
 333 288 l 1,3,-1
 68 288 l 1,0,-1
EndSplineSet
EndChar

StartChar: uni00AD
Encoding: 173 173 156
Width: 401
Flags: W
LayerCount: 2
Fore
SplineSet
68 288 m 1,0,-1
 68 338 l 1,1,-1
 333 338 l 1,2,-1
 333 288 l 1,3,-1
 68 288 l 1,0,-1
EndSplineSet
EndChar

StartChar: guillemotleft
Encoding: 171 171 157
Width: 555
Flags: W
LayerCount: 2
Fore
SplineSet
448 520 m 1
 484 495 l 1
 347 288 l 1
 484 80 l 1
 448 56 l 1
 284 268 l 1
 284 307 l 1
 448 520 l 1
235 520 m 1
 271 495 l 1
 134 288 l 1
 271 80 l 1
 235 56 l 1
 71 268 l 1
 71 307 l 1
 235 520 l 1
EndSplineSet
EndChar

StartChar: guillemotright
Encoding: 187 187 158
Width: 546
Flags: W
LayerCount: 2
Fore
SplineSet
311 520 m 1
 475 307 l 1
 475 268 l 1
 311 56 l 1
 275 80 l 1
 413 288 l 1
 275 495 l 1
 311 520 l 1
107 520 m 1
 271 307 l 1
 271 268 l 1
 107 56 l 1
 71 80 l 1
 209 288 l 1
 71 495 l 1
 107 520 l 1
EndSplineSet
EndChar

StartChar: cent
Encoding: 162 162 160
Width: 469
GlyphClass: 2
Flags: W
LayerCount: 2
Fore
SplineSet
311 -10 m 1,1,-1
 311 -150 l 1,2,-1
 260 -150 l 1,3,-1
 260 -10 l 1,4,5
 170 -1 170 -1 117 69.5 c 128,-1,6
 64 140 64 140 64 258 c 256,7,8
 64 376 64 376 117.5 450 c 128,-1,9
 171 524 171 524 261 533 c 1,10,-1
 261 680 l 1,11,-1
 311 680 l 1,12,-1
 311 533 l 1,13,14
 380 527 380 527 433 481 c 1,15,-1
 404 443 l 1,16,17
 378 464 378 464 350.5 474 c 128,-1,18
 323 484 323 484 288 484 c 0,19,20
 214 484 214 484 170 426.5 c 128,-1,21
 126 369 126 369 126 259 c 0,22,23
 126 150 126 150 169.5 95 c 128,-1,24
 213 40 213 40 287 40 c 0,25,26
 322 40 322 40 350.5 51 c 128,-1,27
 379 62 379 62 408 84 c 1,28,-1
 436 45 l 1,29,0
 380 -3 380 -3 311 -10 c 1,1,-1
EndSplineSet
EndChar

StartChar: currency
Encoding: 164 164 161
Width: 560
GlyphClass: 2
Flags: W
LayerCount: 2
Fore
SplineSet
432 215 m 1,1,-1
 511 138 l 1,2,-1
 475 102 l 1,3,-1
 396 181 l 1,4,5
 347 146 347 146 280 146 c 256,6,7
 213 146 213 146 165 183 c 1,8,-1
 84 102 l 1,9,-1
 49 138 l 1,10,-1
 130 217 l 1,11,12
 90 269 90 269 90 341 c 0,13,14
 90 412 90 412 129 463 c 1,15,-1
 49 543 l 1,16,-1
 85 579 l 1,17,-1
 165 499 l 1,18,19
 214 535 214 535 280 535 c 0,20,21
 347 535 347 535 396 500 c 1,22,-1
 476 579 l 1,23,-1
 511 543 l 1,24,-1
 433 465 l 1,25,26
 473 413 473 413 473 341 c 0,27,0
 473 267 473 267 432 215 c 1,1,-1
382 233 m 128,-1,29
 417 273 417 273 417 341 c 256,30,31
 417 409 417 409 382 449 c 128,-1,32
 347 489 347 489 281 489 c 0,33,34
 216 489 216 489 181 449 c 128,-1,35
 146 409 146 409 146 341 c 256,36,37
 146 273 146 273 181 233 c 128,-1,38
 216 193 216 193 281 193 c 0,39,28
 347 193 347 193 382 233 c 128,-1,29
EndSplineSet
EndChar

StartChar: dollar
Encoding: 36 36 162
Width: 526
GlyphClass: 2
Flags: W
LayerCount: 2
Fore
SplineSet
422.5 53.5 m 128,-1,1
 373 2 373 2 289 -9 c 1,2,-1
 289 -151 l 1,3,-1
 238 -151 l 1,4,-1
 238 -11 l 1,5,6
 121 -7 121 -7 39 72 c 1,7,-1
 74 109 l 1,8,9
 110 75 110 75 152.5 57 c 128,-1,10
 195 39 195 39 250 39 c 0,11,12
 322 39 322 39 367 76.5 c 128,-1,13
 412 114 412 114 412 180 c 0,14,15
 412 220 412 220 397.5 246 c 128,-1,16
 383 272 383 272 349.5 291 c 128,-1,17
 316 310 316 310 254 329 c 0,18,19
 152 361 152 361 108.5 401.5 c 128,-1,20
 65 442 65 442 65 511 c 0,21,22
 65 578 65 578 112.5 623 c 128,-1,23
 160 668 160 668 238 674 c 1,24,-1
 238 819 l 1,25,-1
 289 819 l 1,26,-1
 289 674 l 1,27,28
 340 670 340 670 377.5 652 c 128,-1,29
 415 634 415 634 451 601 c 1,30,-1
 416 564 l 1,31,32
 381 597 381 597 344.5 611 c 128,-1,33
 308 625 308 625 261 625 c 0,34,35
 200 625 200 625 162.5 595 c 128,-1,36
 125 565 125 565 125 513 c 0,37,38
 125 478 125 478 139 455.5 c 128,-1,39
 153 433 153 433 185.5 415 c 128,-1,40
 218 397 218 397 279 379 c 0,41,42
 345 358 345 358 386 335 c 128,-1,43
 427 312 427 312 449.5 275 c 128,-1,44
 472 238 472 238 472 182 c 0,45,0
 472 105 472 105 422.5 53.5 c 128,-1,1
EndSplineSet
EndChar

StartChar: sterling
Encoding: 163 163 163
Width: 509
GlyphClass: 2
Flags: W
LayerCount: 2
Fore
SplineSet
177 96 m 128,-1,1
 162 70 162 70 125 51 c 1,2,-1
 453 51 l 1,3,-1
 446 0 l 1,4,-1
 51 0 l 1,5,-1
 51 48 l 1,6,7
 99 69 99 69 116.5 94 c 128,-1,8
 134 119 134 119 134 170 c 2,9,-1
 134 331 l 1,10,-1
 69 331 l 1,11,-1
 69 374 l 1,12,-1
 134 374 l 1,13,-1
 134 500 l 2,14,15
 134 577 134 577 179 626.5 c 128,-1,16
 224 676 224 676 306 676 c 0,17,18
 357 676 357 676 396 658 c 128,-1,19
 435 640 435 640 468 601 c 1,20,-1
 429 570 l 1,21,22
 403 600 403 600 375 613.5 c 128,-1,23
 347 627 347 627 308 627 c 0,24,25
 252 627 252 627 222 592.5 c 128,-1,26
 192 558 192 558 192 499 c 2,27,-1
 192 374 l 1,28,-1
 406 374 l 1,29,-1
 406 331 l 1,30,-1
 192 331 l 1,31,-1
 192 171 l 2,32,0
 192 122 192 122 177 96 c 128,-1,1
EndSplineSet
EndChar

StartChar: yen
Encoding: 165 165 164
Width: 512
GlyphClass: 2
Flags: W
LayerCount: 2
Fore
SplineSet
499 665 m 1,0,-1
 304 338 l 1,1,-1
 422 338 l 1,2,-1
 422 295 l 1,3,-1
 286 295 l 1,4,-1
 286 192 l 1,5,-1
 422 192 l 1,6,-1
 422 149 l 1,7,-1
 286 149 l 1,8,-1
 286 0 l 1,9,-1
 227 0 l 1,10,-1
 227 149 l 1,11,-1
 91 149 l 1,12,-1
 91 192 l 1,13,-1
 227 192 l 1,14,-1
 227 295 l 1,15,-1
 91 295 l 1,16,-1
 91 338 l 1,17,-1
 208 338 l 1,18,-1
 13 665 l 1,19,-1
 79 665 l 1,20,-1
 258 353 l 1,21,-1
 436 665 l 1,22,-1
 499 665 l 1,0,-1
EndSplineSet
EndChar

StartChar: plus
Encoding: 43 43 165
Width: 493
GlyphClass: 2
Flags: W
LayerCount: 2
Fore
SplineSet
274 508 m 1,0,-1
 274 356 l 1,1,-1
 424 356 l 1,2,-1
 424 306 l 1,3,-1
 274 306 l 1,4,-1
 274 154 l 1,5,-1
 219 154 l 1,6,-1
 219 306 l 1,7,-1
 69 306 l 1,8,-1
 69 356 l 1,9,-1
 219 356 l 1,10,-1
 219 508 l 1,11,-1
 274 508 l 1,0,-1
EndSplineSet
Substitution2: "'dnom' Denominators lookup 9 subtable" plus.dnom
Substitution2: "'numr' Numerators lookup 8 subtable" plus.numr
EndChar

StartChar: multiply
Encoding: 215 215 166
Width: 493
GlyphClass: 2
Flags: W
LayerCount: 2
Fore
SplineSet
371 471 m 1,0,-1
 409 434 l 1,1,-1
 284 308 l 1,2,-1
 409 180 l 1,3,-1
 371 144 l 1,4,-1
 248 272 l 1,5,-1
 122 144 l 1,6,-1
 85 180 l 1,7,-1
 208 306 l 1,8,-1
 85 434 l 1,9,-1
 122 471 l 1,10,-1
 245 342 l 1,11,-1
 371 471 l 1,0,-1
EndSplineSet
EndChar

StartChar: divide
Encoding: 247 247 167
Width: 493
GlyphClass: 2
Flags: W
LayerCount: 2
Fore
SplineSet
69 306 m 1
 69 357 l 1
 424 357 l 1
 424 306 l 1
 69 306 l 1
EndSplineSet
Refer: 141 46 N 1 0 0 1 144 76 2
Refer: 141 46 N 1 0 0 1 144 514 2
EndChar

StartChar: equal
Encoding: 61 61 168
Width: 493
GlyphClass: 2
Flags: W
LayerCount: 2
Fore
SplineSet
69 218 m 1
 69 269 l 1
 424 269 l 1
 424 218 l 1
 69 218 l 1
69 393 m 1
 69 444 l 1
 424 444 l 1
 424 393 l 1
 69 393 l 1
EndSplineSet
Substitution2: "'dnom' Denominators lookup 9 subtable" equal.dnom
Substitution2: "'numr' Numerators lookup 8 subtable" equal.numr
EndChar

StartChar: greater
Encoding: 62 62 169
Width: 497
GlyphClass: 2
Flags: W
LayerCount: 2
Fore
SplineSet
85 529 m 1,0,-1
 433 360 l 1,1,-1
 433 306 l 1,2,-1
 85 135 l 1,3,-1
 64 183 l 1,4,-1
 381 333 l 1,5,-1
 64 480 l 1,6,-1
 85 529 l 1,0,-1
EndSplineSet
EndChar

StartChar: less
Encoding: 60 60 170
Width: 497
GlyphClass: 2
Flags: W
LayerCount: 2
Fore
SplineSet
412 529 m 1,0,-1
 433 480 l 1,1,-1
 115 333 l 1,2,-1
 433 183 l 1,3,-1
 412 135 l 1,4,-1
 64 306 l 1,5,-1
 64 360 l 1,6,-1
 412 529 l 1,0,-1
EndSplineSet
EndChar

StartChar: plusminus
Encoding: 177 177 171
Width: 493
GlyphClass: 2
Flags: W
LayerCount: 2
Fore
SplineSet
69 0 m 1
 69 51 l 1
 424 51 l 1
 424 0 l 1
 69 0 l 1
EndSplineSet
Refer: 165 43 N 1 0 0 1 0 10 2
EndChar

StartChar: asciitilde
Encoding: 126 126 172
Width: 472
GlyphClass: 2
Flags: W
LayerCount: 2
Fore
SplineSet
268.5 272.5 m 128,-1,1
 248 281 248 281 221 297 c 0,2,3
 199 310 199 310 185.5 316 c 128,-1,4
 172 322 172 322 158 322 c 0,5,6
 136 322 136 322 120 310 c 128,-1,7
 104 298 104 298 88 275 c 1,8,-1
 51 295 l 1,9,10
 73 331 73 331 98.5 351 c 128,-1,11
 124 371 124 371 162 371 c 0,12,13
 185 371 185 371 205.5 362.5 c 128,-1,14
 226 354 226 354 252 338 c 0,15,16
 276 325 276 325 289 319 c 128,-1,17
 302 313 302 313 316 313 c 0,18,19
 338 313 338 313 353 324 c 128,-1,20
 368 335 368 335 384 357 c 1,21,-1
 420 337 l 1,22,23
 399 303 399 303 374.5 283.5 c 128,-1,24
 350 264 350 264 312 264 c 0,25,0
 289 264 289 264 268.5 272.5 c 128,-1,1
EndSplineSet
EndChar

StartChar: logicalnot
Encoding: 172 172 173
Width: 499
GlyphClass: 2
Flags: W
LayerCount: 2
Fore
SplineSet
430 347 m 1,0,-1
 430 168 l 1,1,-1
 375 168 l 1,2,-1
 375 296 l 1,3,-1
 69 296 l 1,4,-1
 69 347 l 1,5,-1
 430 347 l 1,0,-1
EndSplineSet
EndChar

StartChar: uni00B5
Encoding: 181 181 174
Width: 585
GlyphClass: 2
Flags: W
LayerCount: 2
Fore
SplineSet
446 -9 m 1
 434 21 434 21 428.5 44.5 c 0
 423 68 423 68 420 102 c 1
 358 -11 358 -11 262 -11 c 0
 221 -11 221 -11 195 5 c 0
 169 21 169 21 153 52 c 1
 164 -6 164 -6 164 -80 c 2
 164 -197 l 1
 106 -203 l 1
 106 523 l 1
 164 523 l 1
 164 150 l 2
 164 93 164 93 191 66.5 c 0
 218 40 218 40 262 40 c 0
 357 40 357 40 414 158 c 1
 414 523 l 1
 472 523 l 1
 472 177 l 2
 472 77 472 77 499 -2 c 1
 446 -9 l 1
EndSplineSet
EndChar

StartChar: percent
Encoding: 37 37 175
Width: 793
GlyphClass: 2
Flags: W
LayerCount: 2
Fore
SplineSet
610 703 m 1,0,-1
 653 676 l 1,1,-1
 189 -24 l 1,2,-1
 147 4 l 1,3,-1
 610 703 l 1,0,-1
311 632 m 128,-1,5
 352 588 352 588 352 514 c 256,6,7
 352 440 352 440 311.5 395.5 c 128,-1,8
 271 351 271 351 203 351 c 0,9,10
 136 351 136 351 94.5 395 c 128,-1,11
 53 439 53 439 53 513 c 256,12,13
 53 587 53 587 94 631.5 c 128,-1,14
 135 676 135 676 203 676 c 0,15,4
 270 676 270 676 311 632 c 128,-1,5
130 600 m 128,-1,17
 107 566 107 566 107 513 c 0,18,19
 107 461 107 461 130 427 c 128,-1,20
 153 393 153 393 203 393 c 256,21,22
 253 393 253 393 275.5 427 c 128,-1,23
 298 461 298 461 298 514 c 0,24,25
 298 566 298 566 275.5 600 c 128,-1,26
 253 634 253 634 203 634 c 256,27,16
 153 634 153 634 130 600 c 128,-1,17
698.5 270 m 128,-1,29
 740 226 740 226 740 153 c 0,30,31
 740 78 740 78 699 33.5 c 128,-1,32
 658 -11 658 -11 590 -11 c 0,33,34
 524 -11 524 -11 482.5 33.5 c 128,-1,35
 441 78 441 78 441 151 c 0,36,37
 441 226 441 226 481.5 270 c 128,-1,38
 522 314 522 314 590 314 c 0,39,28
 657 314 657 314 698.5 270 c 128,-1,29
518 238 m 128,-1,41
 495 204 495 204 495 151 c 0,42,43
 495 99 495 99 518 65 c 128,-1,44
 541 31 541 31 590 31 c 0,45,46
 640 31 640 31 663 65 c 128,-1,47
 686 99 686 99 686 153 c 0,48,49
 686 204 686 204 663 238 c 128,-1,50
 640 272 640 272 590 272 c 0,51,40
 541 272 541 272 518 238 c 128,-1,41
EndSplineSet
EndChar

StartChar: at
Encoding: 64 64 176
Width: 1020
GlyphClass: 2
Flags: W
LayerCount: 2
Fore
SplineSet
748.5 643 m 128,-1,1
 841 590 841 590 888 502 c 128,-1,2
 935 414 935 414 935 308 c 0,3,4
 935 164 935 164 885 88 c 128,-1,5
 835 12 835 12 754 12 c 0,6,7
 704 12 704 12 673 43 c 128,-1,8
 642 74 642 74 632 122 c 1,9,10
 610 72 610 72 573.5 43 c 128,-1,11
 537 14 537 14 484 14 c 0,12,13
 436 14 436 14 397.5 40 c 128,-1,14
 359 66 359 66 337.5 115 c 128,-1,15
 316 164 316 164 316 232 c 0,16,17
 316 315 316 315 343.5 371.5 c 128,-1,18
 371 428 371 428 418 456 c 128,-1,19
 465 484 465 484 525 484 c 0,20,21
 600 484 600 484 670 448 c 1,22,-1
 670 190 l 2,23,24
 670 59 670 59 753 59 c 0,25,26
 809 59 809 59 842.5 117 c 128,-1,27
 876 175 876 175 876 306 c 0,28,29
 876 404 876 404 835.5 481 c 128,-1,30
 795 558 795 558 716 602 c 128,-1,31
 637 646 637 646 526 646 c 0,32,33
 412 646 412 646 325.5 593 c 128,-1,34
 239 540 239 540 191.5 447 c 128,-1,35
 144 354 144 354 144 239 c 0,36,37
 144 120 144 120 190.5 31 c 128,-1,38
 237 -58 237 -58 323.5 -107 c 128,-1,39
 410 -156 410 -156 525 -156 c 0,40,41
 622 -156 622 -156 714 -122 c 1,42,-1
 730 -169 l 1,43,44
 678 -187 678 -187 632 -196 c 128,-1,45
 586 -205 586 -205 524 -205 c 0,46,47
 396 -205 396 -205 296.5 -151 c 128,-1,48
 197 -97 197 -97 141 3.5 c 128,-1,49
 85 104 85 104 85 239 c 0,50,51
 85 367 85 367 140.5 471.5 c 128,-1,52
 196 576 196 576 296.5 636 c 128,-1,53
 397 696 397 696 526 696 c 0,54,0
 656 696 656 696 748.5 643 c 128,-1,1
570 91.5 m 128,-1,56
 602 123 602 123 616 166 c 1,57,-1
 616 419 l 1,58,59
 574 439 574 439 527 439 c 0,60,61
 454 439 454 439 414 385 c 128,-1,62
 374 331 374 331 374 232 c 0,63,64
 374 148 374 148 405 104 c 128,-1,65
 436 60 436 60 490 60 c 0,66,55
 538 60 538 60 570 91.5 c 128,-1,56
EndSplineSet
EndChar

StartChar: ampersand
Encoding: 38 38 177
Width: 722
GlyphClass: 2
Flags: W
LayerCount: 2
Fore
SplineSet
420.5 654.5 m 128,-1,1
 467 613 467 613 467 548 c 0,2,3
 467 491 467 491 429.5 449 c 128,-1,4
 392 407 392 407 314 364 c 1,5,-1
 519 172 l 1,6,7
 563 262 563 262 585 362 c 1,8,-1
 640 346 l 1,9,10
 608 226 608 226 555 137 c 1,11,-1
 679 23 l 1,12,-1
 636 -11 l 1,13,-1
 524 94 l 1,14,15
 481 43 481 43 427.5 16 c 128,-1,16
 374 -11 374 -11 300 -11 c 0,17,18
 241 -11 241 -11 193 11.5 c 128,-1,19
 145 34 145 34 117.5 75.5 c 128,-1,20
 90 117 90 117 90 171 c 0,21,22
 90 235 90 235 126 281.5 c 128,-1,23
 162 328 162 328 234 370 c 1,24,25
 179 422 179 422 156 458.5 c 128,-1,26
 133 495 133 495 133 544 c 0,27,28
 133 610 133 610 179 653 c 128,-1,29
 225 696 225 696 301 696 c 0,30,0
 374 696 374 696 420.5 654.5 c 128,-1,1
221 620.5 m 128,-1,32
 191 590 191 590 191 545 c 0,33,34
 191 507 191 507 209.5 476.5 c 128,-1,35
 228 446 228 446 280 396 c 1,36,37
 347 433 347 433 378.5 467.5 c 128,-1,38
 410 502 410 502 410 546 c 0,39,40
 410 595 410 595 379.5 623 c 128,-1,41
 349 651 349 651 301 651 c 0,42,31
 251 651 251 651 221 620.5 c 128,-1,32
179.5 262.5 m 128,-1,44
 150 223 150 223 150 173 c 0,45,46
 150 112 150 112 193.5 74.5 c 128,-1,47
 237 37 237 37 305 37 c 0,48,49
 365 37 365 37 408 59.5 c 128,-1,50
 451 82 451 82 488 127 c 1,51,-1
 269 338 l 1,52,43
 209 302 209 302 179.5 262.5 c 128,-1,44
EndSplineSet
EndChar

StartChar: paragraph
Encoding: 182 182 178
Width: 708
GlyphClass: 2
Flags: W
LayerCount: 2
Fore
SplineSet
557 685 m 1,0,-1
 557 -197 l 1,1,-1
 503 -206 l 1,2,-1
 503 637 l 1,3,-1
 375 637 l 1,4,-1
 375 -197 l 1,5,-1
 321 -206 l 1,6,-1
 321 294 l 1,7,8
 207 298 207 298 154 351.5 c 128,-1,9
 101 405 101 405 101 490 c 0,10,11
 101 583 101 583 162 634 c 128,-1,12
 223 685 223 685 333 685 c 2,13,-1
 557 685 l 1,0,-1
EndSplineSet
EndChar

StartChar: section
Encoding: 167 167 179
Width: 532
GlyphClass: 2
Flags: W
LayerCount: 2
Fore
SplineSet
413 125.5 m 128,-1,1
 426 102 426 102 426 68 c 0,2,3
 426 6 426 6 377 -31 c 128,-1,4
 328 -68 328 -68 251 -68 c 0,5,6
 162 -68 162 -68 88 -21 c 1,7,-1
 113 20 l 1,8,9
 144 0 144 0 177.5 -10 c 128,-1,10
 211 -20 211 -20 253 -20 c 0,11,12
 305 -20 305 -20 336 3 c 128,-1,13
 367 26 367 26 367 63 c 0,14,15
 367 90 367 90 357.5 106.5 c 128,-1,16
 348 123 348 123 322 137.5 c 128,-1,17
 296 152 296 152 243 170 c 0,18,19
 183 190 183 190 149.5 208.5 c 128,-1,20
 116 227 116 227 100 252.5 c 128,-1,21
 84 278 84 278 84 317 c 0,22,23
 84 353 84 353 104.5 385 c 128,-1,24
 125 417 125 417 163 441 c 1,25,26
 134 460 134 460 121.5 483 c 128,-1,27
 109 506 109 506 109 540 c 0,28,29
 109 601 109 601 156 638 c 128,-1,30
 203 675 203 675 276 675 c 0,31,32
 325 675 325 675 361.5 662.5 c 128,-1,33
 398 650 398 650 434 626 c 1,34,-1
 410 587 l 1,35,36
 377 608 377 608 346 617.5 c 128,-1,37
 315 627 315 627 276 627 c 0,38,39
 226 627 226 627 196.5 603.5 c 128,-1,40
 167 580 167 580 167 543 c 0,41,42
 167 517 167 517 177.5 500 c 128,-1,43
 188 483 188 483 215.5 468 c 128,-1,44
 243 453 243 453 297 435 c 0,45,46
 379 407 379 407 414 375 c 128,-1,47
 449 343 449 343 449 289 c 0,48,49
 449 218 449 218 372 167 c 1,50,0
 400 149 400 149 413 125.5 c 128,-1,1
151 277.5 m 128,-1,52
 161 260 161 260 186 246 c 128,-1,53
 211 232 211 232 260 215 c 0,54,55
 311 197 311 197 335 186 c 1,56,57
 365 208 365 208 378.5 231.5 c 128,-1,58
 392 255 392 255 392 282 c 256,59,60
 392 309 392 309 383 326.5 c 128,-1,61
 374 344 374 344 348.5 359.5 c 128,-1,62
 323 375 323 375 274 392 c 0,63,64
 231 407 231 407 199 422 c 1,65,66
 141 377 141 377 141 323 c 0,67,51
 141 295 141 295 151 277.5 c 128,-1,52
EndSplineSet
EndChar

StartChar: copyright
Encoding: 169 169 180
Width: 810
GlyphClass: 2
Flags: W
LayerCount: 2
Fore
SplineSet
556 697.5 m 128,-1,1
 624 659 624 659 663 590.5 c 128,-1,2
 702 522 702 522 702 435 c 0,3,4
 702 349 702 349 663 280 c 128,-1,5
 624 211 624 211 556 172.5 c 128,-1,6
 488 134 488 134 405 134 c 256,7,8
 322 134 322 134 254 172.5 c 128,-1,9
 186 211 186 211 147 279.5 c 128,-1,10
 108 348 108 348 108 435 c 0,11,12
 108 521 108 521 147 590 c 128,-1,13
 186 659 186 659 254 697.5 c 128,-1,14
 322 736 322 736 405 736 c 256,15,0
 488 736 488 736 556 697.5 c 128,-1,1
276 664 m 128,-1,17
 218 631 218 631 185.5 571 c 128,-1,18
 153 511 153 511 153 435 c 0,19,20
 153 358 153 358 185.5 298.5 c 128,-1,21
 218 239 218 239 275.5 206 c 128,-1,22
 333 173 333 173 406 173 c 0,23,24
 478 173 478 173 535 206 c 128,-1,25
 592 239 592 239 624.5 299 c 128,-1,26
 657 359 657 359 657 435 c 0,27,28
 657 512 657 512 624.5 571.5 c 128,-1,29
 592 631 592 631 535 664 c 128,-1,30
 478 697 478 697 406 697 c 256,31,16
 334 697 334 697 276 664 c 128,-1,17
462 607.5 m 128,-1,33
 486 599 486 599 509 581 c 1,34,-1
 485 548 l 1,35,36
 467 561 467 561 449 567 c 128,-1,37
 431 573 431 573 408 573 c 0,38,39
 367 573 367 573 338.5 540.5 c 128,-1,40
 310 508 310 508 310 436 c 0,41,42
 310 367 310 367 337 332.5 c 128,-1,43
 364 298 364 298 409 298 c 0,44,45
 434 298 434 298 453.5 305.5 c 128,-1,46
 473 313 473 313 493 327 c 1,47,-1
 515 294 l 1,48,49
 467 254 467 254 407 254 c 0,50,51
 340 254 340 254 299.5 302 c 128,-1,52
 259 350 259 350 259 436 c 0,53,54
 259 495 259 495 279.5 535.5 c 128,-1,55
 300 576 300 576 333.5 596 c 128,-1,56
 367 616 367 616 406 616 c 0,57,32
 438 616 438 616 462 607.5 c 128,-1,33
EndSplineSet
EndChar

StartChar: registered
Encoding: 174 174 181
Width: 639
GlyphClass: 2
Flags: W
LayerCount: 2
Fore
SplineSet
441 705.5 m 128,-1,1
 496 674 496 674 528 619 c 128,-1,2
 560 564 560 564 560 497 c 0,3,4
 560 431 560 431 528 376 c 128,-1,5
 496 321 496 321 441 289 c 128,-1,6
 386 257 386 257 319 257 c 0,7,8
 253 257 253 257 198 288.5 c 128,-1,9
 143 320 143 320 111.5 374.5 c 128,-1,10
 80 429 80 429 80 495 c 256,11,12
 80 561 80 561 112 616.5 c 128,-1,13
 144 672 144 672 198.5 704.5 c 128,-1,14
 253 737 253 737 319 737 c 0,15,0
 386 737 386 737 441 705.5 c 128,-1,1
421 320 m 128,-1,17
 467 347 467 347 493.5 393.5 c 128,-1,18
 520 440 520 440 520 497 c 0,19,20
 520 555 520 555 494 601.5 c 128,-1,21
 468 648 468 648 422 674 c 128,-1,22
 376 700 376 700 319 700 c 0,23,24
 264 700 264 700 218.5 673 c 128,-1,25
 173 646 173 646 146.5 599 c 128,-1,26
 120 552 120 552 120 495 c 256,27,28
 120 438 120 438 146.5 391.5 c 128,-1,29
 173 345 173 345 218.5 319 c 128,-1,30
 264 293 264 293 319 293 c 0,31,16
 375 293 375 293 421 320 c 128,-1,17
355 482 m 1,33,-1
 429 364 l 1,34,-1
 379 364 l 1,35,-1
 315 475 l 1,36,-1
 278 475 l 1,37,-1
 278 364 l 1,38,-1
 236 364 l 1,39,-1
 236 636 l 1,40,-1
 305 636 l 2,41,42
 419 636 419 636 419 555 c 0,43,32
 419 499 419 499 355 482 c 1,33,-1
278 510 m 1,44,-1
 317 510 l 2,45,46
 376 510 376 510 376 555 c 0,47,48
 376 580 376 580 360 590.5 c 128,-1,49
 344 601 344 601 311 601 c 2,50,-1
 278 601 l 1,51,-1
 278 510 l 1,44,-1
EndSplineSet
EndChar

StartChar: degree
Encoding: 176 176 182
Width: 521
GlyphClass: 2
Flags: W
LayerCount: 2
Fore
SplineSet
145.5 413 m 128,-1,1
 111 431 111 431 90 465.5 c 128,-1,2
 69 500 69 500 69 546 c 0,3,4
 69 591 69 591 90 625 c 128,-1,5
 111 659 111 659 145.5 677.5 c 128,-1,6
 180 696 180 696 219 696 c 0,7,8
 260 696 260 696 294.5 678 c 128,-1,9
 329 660 329 660 349.5 625.5 c 128,-1,10
 370 591 370 591 370 545 c 0,11,12
 370 500 370 500 349.5 466 c 128,-1,13
 329 432 329 432 294.5 413.5 c 128,-1,14
 260 395 260 395 219 395 c 0,15,0
 180 395 180 395 145.5 413 c 128,-1,1
290.5 467.5 m 128,-1,17
 318 496 318 496 318 545 c 0,18,19
 318 595 318 595 290.5 623.5 c 128,-1,20
 263 652 263 652 219 652 c 0,21,22
 177 652 177 652 148.5 623.5 c 128,-1,23
 120 595 120 595 120 546 c 256,24,25
 120 497 120 497 148.5 468 c 128,-1,26
 177 439 177 439 219 439 c 0,27,16
 263 439 263 439 290.5 467.5 c 128,-1,17
EndSplineSet
EndChar

StartChar: bar
Encoding: 124 124 183
Width: 407
GlyphClass: 2
Flags: W
LayerCount: 2
Fore
SplineSet
230 804 m 1,0,-1
 230 -100 l 1,1,-1
 176 -100 l 1,2,-1
 176 804 l 1,3,-1
 230 804 l 1,0,-1
EndSplineSet
EndChar

StartChar: brokenbar
Encoding: 166 166 184
Width: 407
GlyphClass: 2
Flags: W
LayerCount: 2
Fore
SplineSet
230 804 m 1,0,-1
 230 443 l 1,1,-1
 176 443 l 1,2,-1
 176 804 l 1,3,-1
 230 804 l 1,0,-1
230 262 m 1,4,-1
 230 -100 l 1,5,-1
 176 -100 l 1,6,-1
 176 262 l 1,7,-1
 230 262 l 1,4,-1
EndSplineSet
EndChar

StartChar: asciicircum
Encoding: 94 94 185
Width: 531
GlyphClass: 2
Flags: W
LayerCount: 2
Fore
SplineSet
290 832 m 1,0,-1
 474 527 l 1,1,-1
 409 527 l 1,2,-1
 265 775 l 1,3,-1
 122 527 l 1,4,-1
 56 527 l 1,5,-1
 241 832 l 1,6,-1
 290 832 l 1,0,-1
EndSplineSet
EndChar

StartChar: acute
Encoding: 180 180 186
Width: 274
Flags: W
LayerCount: 2
Fore
SplineSet
218 782 m 1
 244 730 l 1
 49 645 l 1
 30 679 l 1
 218 782 l 1
EndSplineSet
Substitution2: "Single Substitution lookup 19 subtable" acute.case
Substitution2: "'locl' Localized Forms in Latin lookup 3 subtable" acute.loclPLK
EndChar

StartChar: cedilla
Encoding: 184 184 187
Width: 245
Flags: W
LayerCount: 2
Fore
SplineSet
123 -64 m 1
 170 -68 170 -68 192.5 -88 c 0
 215 -108 215 -108 215 -140 c 0
 215 -181 215 -181 185 -204 c 0
 155 -227 155 -227 110 -227 c 0
 62 -227 62 -227 30 -206 c 1
 48 -170 l 1
 75 -185 75 -185 109 -185 c 0
 133 -185 133 -185 148.5 -174 c 0
 164 -163 164 -163 164 -140 c 0
 164 -118 164 -118 142.5 -107 c 0
 121 -96 121 -96 75 -96 c 1
 85 16 l 1
 123 16 l 1
 123 -64 l 1
EndSplineSet
Substitution2: "Single Substitution lookup 19 subtable" cedilla.case
EndChar

StartChar: dieresis
Encoding: 168 168 188
Width: 329
Flags: W
LayerCount: 2
Fore
SplineSet
98.5 730.5 m 0
 110 719 110 719 110 702 c 256
 110 685 110 685 98.5 674 c 0
 87 663 87 663 70 663 c 256
 53 663 53 663 41.5 674 c 0
 30 685 30 685 30 702 c 256
 30 719 30 719 41.5 730.5 c 0
 53 742 53 742 70 742 c 256
 87 742 87 742 98.5 730.5 c 0
287.5 730.5 m 0
 299 719 299 719 299 702 c 256
 299 685 299 685 287.5 674 c 0
 276 663 276 663 259 663 c 256
 242 663 242 663 230.5 674 c 0
 219 685 219 685 219 702 c 256
 219 719 219 719 230.5 730.5 c 0
 242 742 242 742 259 742 c 256
 276 742 276 742 287.5 730.5 c 0
EndSplineSet
Substitution2: "Single Substitution lookup 19 subtable" dieresis.case
EndChar

StartChar: grave
Encoding: 96 96 189
Width: 274
Flags: W
LayerCount: 2
Fore
SplineSet
56 782 m 1
 244 679 l 1
 226 645 l 1
 30 730 l 1
 56 782 l 1
EndSplineSet
Substitution2: "Single Substitution lookup 19 subtable" grave.case
EndChar

StartChar: macron
Encoding: 175 175 190
Width: 301
Flags: W
LayerCount: 2
Fore
SplineSet
271 676 m 1
 30 676 l 1
 30 723 l 1
 271 723 l 1
 271 676 l 1
EndSplineSet
Substitution2: "Single Substitution lookup 19 subtable" macron.case
EndChar
